<?xml version="1.0" encoding="utf-8"?>
<!-- Generator: Adobe Illustrator 19.0.0, SVG Export Plug-In . SVG Version: 6.00 Build 0)  -->
<svg version="1.1" id="Layer_1" xmlns="http://www.w3.org/2000/svg" xmlns:xlink="http://www.w3.org/1999/xlink" x="0px" y="0px"
	 viewBox="0 0 364 114" style="enable-background:new 0 0 364 114;" xml:space="preserve">
<style type="text/css">
	.st0{fill:#2F7AB7;}
	.st1{fill:#FACD0C;}
	.st2{fill:#5CB050;}
</style>
<g>
	<g>
		<path class="st0" d="M119.7,66.3c0,0.4,0.1,0.7,0.2,0.9c0.1,0.2,0.2,0.4,0.4,0.5c0.2,0.1,0.4,0.2,0.6,0.2c0.2,0,0.5,0.1,0.8,0.1
			h0.6v1h-7.5v-1h0.6c0.3,0,0.5,0,0.8-0.1c0.2,0,0.5-0.1,0.6-0.2c0.2-0.1,0.3-0.3,0.4-0.5c0.1-0.2,0.2-0.5,0.2-0.9V53h-2.3
			c-0.4,0-0.7,0.1-0.9,0.2c-0.2,0.1-0.4,0.2-0.6,0.4c-0.2,0.2-0.3,0.4-0.3,0.6c-0.1,0.2-0.1,0.5-0.2,0.8l-0.1,1h-1.3l0.1-4.2h13.6
			l0.1,4.2h-1.3l-0.1-1c0-0.3-0.1-0.5-0.2-0.8c-0.1-0.2-0.2-0.5-0.3-0.6c-0.1-0.2-0.3-0.3-0.6-0.4c-0.2-0.1-0.5-0.2-0.9-0.2h-2.3
			V66.3z"/>
		<path class="st0" d="M142,60.4c0,1.3-0.2,2.5-0.5,3.6c-0.3,1.1-0.8,2-1.5,2.8c-0.6,0.8-1.4,1.4-2.4,1.8c-0.9,0.4-2,0.6-3.2,0.6
			c-1.3,0-2.4-0.2-3.4-0.6c-1-0.4-1.7-1-2.4-1.8c-0.6-0.8-1.1-1.7-1.4-2.8c-0.3-1.1-0.5-2.3-0.5-3.7c0-1.3,0.2-2.6,0.5-3.6
			c0.3-1.1,0.8-2,1.4-2.8s1.4-1.4,2.4-1.8c1-0.4,2.1-0.6,3.4-0.6c1.2,0,2.3,0.2,3.2,0.6c0.9,0.4,1.7,1,2.4,1.8
			c0.6,0.8,1.1,1.7,1.5,2.8C141.8,57.8,142,59,142,60.4z M129.5,60.4c0,1.2,0.1,2.3,0.3,3.2c0.2,0.9,0.5,1.7,0.9,2.4
			c0.4,0.6,0.9,1.1,1.5,1.5c0.6,0.3,1.4,0.5,2.3,0.5c0.9,0,1.7-0.2,2.3-0.5c0.6-0.3,1.1-0.8,1.5-1.5c0.4-0.6,0.7-1.4,0.8-2.4
			c0.2-0.9,0.3-2,0.3-3.2c0-1.2-0.1-2.3-0.3-3.2c-0.2-0.9-0.5-1.7-0.8-2.4c-0.4-0.6-0.9-1.1-1.5-1.5c-0.6-0.3-1.4-0.5-2.3-0.5
			c-0.9,0-1.7,0.2-2.3,0.5c-0.6,0.3-1.1,0.8-1.5,1.5c-0.4,0.6-0.7,1.4-0.9,2.4C129.6,58.1,129.5,59.2,129.5,60.4z"/>
		<path class="st0" d="M158.3,66.3c0,0.4,0.1,0.7,0.2,0.9c0.1,0.2,0.2,0.4,0.4,0.5c0.2,0.1,0.4,0.2,0.6,0.2c0.2,0,0.5,0.1,0.8,0.1
			h0.6v1h-7.5v-1h0.6c0.3,0,0.5,0,0.8-0.1c0.2,0,0.5-0.1,0.6-0.2c0.2-0.1,0.3-0.3,0.4-0.5c0.1-0.2,0.2-0.5,0.2-0.9V53h-2.3
			c-0.4,0-0.7,0.1-0.9,0.2c-0.2,0.1-0.4,0.2-0.6,0.4c-0.2,0.2-0.3,0.4-0.3,0.6c-0.1,0.2-0.1,0.5-0.2,0.8l-0.1,1h-1.3l0.1-4.2h13.6
			L164,56h-1.3l-0.1-1c0-0.3-0.1-0.5-0.2-0.8c-0.1-0.2-0.2-0.5-0.3-0.6c-0.1-0.2-0.3-0.3-0.6-0.4c-0.2-0.1-0.5-0.2-0.9-0.2h-2.3
			V66.3z"/>
		<path class="st0" d="M175.7,69v-1h0.3c0.3,0,0.5,0,0.8-0.1c0.2,0,0.4-0.1,0.6-0.2c0.2-0.1,0.3-0.3,0.4-0.5
			c0.1-0.2,0.2-0.5,0.2-0.9v-5.7h-7.9v5.7c0,0.4,0.1,0.7,0.2,0.9c0.1,0.2,0.2,0.4,0.4,0.5c0.2,0.1,0.4,0.2,0.6,0.2
			c0.2,0,0.5,0.1,0.8,0.1h0.3v1h-7v-1h0.3c0.3,0,0.5,0,0.8-0.1c0.2,0,0.5-0.1,0.6-0.2c0.2-0.1,0.3-0.3,0.4-0.5
			c0.1-0.2,0.2-0.5,0.2-0.9V54.4c0-0.4-0.1-0.6-0.2-0.9c-0.1-0.2-0.2-0.4-0.4-0.5c-0.2-0.1-0.4-0.2-0.6-0.2c-0.2,0-0.5-0.1-0.8-0.1
			h-0.3v-1h7v1h-0.3c-0.3,0-0.5,0-0.8,0.1c-0.2,0-0.5,0.1-0.6,0.2c-0.2,0.1-0.3,0.3-0.4,0.5c-0.1,0.2-0.2,0.5-0.2,0.9v4.9h7.9v-4.9
			c0-0.4-0.1-0.7-0.2-0.9c-0.1-0.2-0.2-0.4-0.4-0.5c-0.2-0.1-0.4-0.2-0.6-0.2c-0.2,0-0.5-0.1-0.8-0.1h-0.3v-1h7v1h-0.3
			c-0.3,0-0.5,0-0.8,0.1c-0.2,0-0.5,0.1-0.6,0.2c-0.2,0.1-0.3,0.3-0.4,0.5c-0.1,0.2-0.2,0.5-0.2,0.9v11.9c0,0.4,0.1,0.6,0.2,0.9
			c0.1,0.2,0.2,0.4,0.4,0.5c0.2,0.1,0.4,0.2,0.6,0.2c0.2,0,0.5,0.1,0.8,0.1h0.3v1H175.7z"/>
		<path class="st0" d="M189.3,67.8h4.7c0.4,0,0.7-0.1,1-0.2c0.3-0.1,0.5-0.2,0.7-0.4c0.2-0.2,0.3-0.4,0.4-0.6
			c0.1-0.2,0.2-0.5,0.2-0.8l0.2-1h1.3l-0.2,4.2h-13v-1h0.3c0.3,0,0.5,0,0.8-0.1c0.2,0,0.5-0.1,0.6-0.2c0.2-0.1,0.3-0.3,0.4-0.5
			c0.1-0.2,0.2-0.5,0.2-0.9V54.5c0-0.4-0.1-0.7-0.2-0.9c-0.1-0.2-0.2-0.4-0.4-0.5c-0.2-0.1-0.4-0.2-0.6-0.2c-0.2,0-0.5-0.1-0.8-0.1
			h-0.3v-1h12.2l0.1,4.2h-1.3l-0.1-1c0-0.3-0.1-0.5-0.2-0.8c-0.1-0.2-0.2-0.5-0.4-0.6c-0.2-0.2-0.4-0.3-0.6-0.4
			c-0.3-0.1-0.6-0.2-0.9-0.2h-4.1v6.4h5.8v1.2h-5.8V67.8z"/>
		<path class="st0" d="M218.6,56.1c0,0.5-0.1,1-0.2,1.4c-0.2,0.4-0.4,0.8-0.6,1.1c-0.3,0.3-0.6,0.6-1,0.8c-0.4,0.2-0.8,0.4-1.2,0.5
			V60c0.6,0.1,1.1,0.3,1.5,0.5c0.5,0.2,0.8,0.5,1.2,0.9c0.3,0.4,0.6,0.8,0.8,1.3c0.2,0.5,0.3,1.1,0.3,1.7c0,1.6-0.5,2.7-1.5,3.5
			c-1,0.8-2.6,1.2-4.7,1.2h-7.2v-1h0.3c0.3,0,0.5,0,0.8-0.1c0.2,0,0.5-0.1,0.6-0.2c0.2-0.1,0.3-0.3,0.4-0.5c0.1-0.2,0.2-0.5,0.2-0.9
			V54.4c0-0.4-0.1-0.6-0.2-0.9c-0.1-0.2-0.2-0.4-0.4-0.5c-0.2-0.1-0.4-0.2-0.6-0.2c-0.2,0-0.5-0.1-0.8-0.1h-0.3v-1h6.5
			c2.1,0,3.7,0.3,4.7,1C218.1,53.5,218.6,54.6,218.6,56.1z M210.6,59.4h1.7c0.7,0,1.3-0.1,1.8-0.2c0.5-0.1,0.8-0.3,1.1-0.6
			c0.3-0.3,0.5-0.6,0.6-1c0.1-0.4,0.2-0.9,0.2-1.5c0-0.6-0.1-1.1-0.2-1.5c-0.1-0.4-0.4-0.7-0.6-1c-0.3-0.2-0.7-0.4-1.2-0.5
			c-0.5-0.1-1.1-0.2-1.7-0.2h-1.6V59.4z M210.6,67.8h2.3c0.7,0,1.3-0.1,1.7-0.2c0.5-0.1,0.9-0.3,1.2-0.6c0.3-0.3,0.5-0.6,0.6-1.1
			c0.1-0.4,0.2-1,0.2-1.6c0-0.6-0.1-1.2-0.2-1.6c-0.1-0.5-0.3-0.8-0.6-1.2c-0.3-0.3-0.7-0.5-1.1-0.7c-0.5-0.1-1.1-0.2-1.8-0.2h-2.4
			V67.8z"/>
		<path class="st0" d="M226.4,67.8h4.7c0.4,0,0.7-0.1,1-0.2c0.3-0.1,0.5-0.2,0.7-0.4c0.2-0.2,0.3-0.4,0.4-0.6
			c0.1-0.2,0.2-0.5,0.2-0.8l0.2-1h1.3l-0.2,4.2h-13v-1h0.3c0.3,0,0.5,0,0.8-0.1c0.2,0,0.5-0.1,0.6-0.2c0.2-0.1,0.3-0.3,0.4-0.5
			c0.1-0.2,0.2-0.5,0.2-0.9V54.5c0-0.4-0.1-0.7-0.2-0.9c-0.1-0.2-0.2-0.4-0.4-0.5c-0.2-0.1-0.4-0.2-0.6-0.2c-0.2,0-0.5-0.1-0.8-0.1
			h-0.3v-1h12.2L234,56h-1.3l-0.1-1c0-0.3-0.1-0.5-0.2-0.8c-0.1-0.2-0.2-0.5-0.4-0.6c-0.2-0.2-0.4-0.3-0.6-0.4
			c-0.3-0.1-0.6-0.2-0.9-0.2h-4.1v6.4h5.8v1.2h-5.8V67.8z"/>
		<path class="st0" d="M241.8,69.3c-0.8,0-1.5-0.1-2.1-0.2c-0.6-0.2-1.1-0.4-1.5-0.7c-0.4-0.3-0.7-0.7-0.9-1.1
			c-0.2-0.4-0.3-0.9-0.3-1.4c0-0.5,0.2-0.9,0.5-1.2c0.3-0.3,0.7-0.4,1.3-0.4c0,0.5,0.1,1,0.2,1.5c0.1,0.5,0.3,0.9,0.6,1.2
			c0.3,0.4,0.6,0.6,1,0.9c0.4,0.2,0.9,0.3,1.5,0.3c1.1,0,1.9-0.3,2.5-0.8c0.6-0.5,0.9-1.3,0.9-2.3c0-0.4-0.1-0.8-0.2-1.2
			c-0.1-0.3-0.3-0.7-0.6-0.9c-0.3-0.3-0.7-0.6-1.2-0.8c-0.5-0.3-1.1-0.5-1.8-0.8c-0.7-0.3-1.4-0.6-2-1c-0.6-0.4-1-0.7-1.4-1.2
			c-0.4-0.4-0.6-0.9-0.8-1.4c-0.2-0.5-0.3-1.1-0.3-1.8c0-0.7,0.1-1.3,0.4-1.9c0.3-0.5,0.6-1,1.1-1.4c0.5-0.4,1-0.7,1.7-0.9
			c0.6-0.2,1.3-0.3,2.1-0.3c0.7,0,1.4,0.1,1.9,0.2c0.6,0.1,1,0.4,1.4,0.6c0.4,0.3,0.7,0.5,0.9,0.9c0.2,0.3,0.3,0.7,0.3,1
			c0,0.5-0.2,0.9-0.5,1.2c-0.3,0.3-0.8,0.4-1.4,0.4c0-0.4,0-0.7-0.1-1.1c-0.1-0.4-0.2-0.7-0.5-1c-0.2-0.3-0.5-0.5-0.8-0.7
			c-0.3-0.2-0.8-0.3-1.3-0.3c-0.5,0-0.9,0.1-1.2,0.2c-0.4,0.1-0.7,0.3-0.9,0.6c-0.3,0.2-0.4,0.5-0.6,0.9c-0.1,0.3-0.2,0.7-0.2,1.1
			c0,0.5,0.1,0.9,0.2,1.3c0.1,0.4,0.3,0.7,0.6,1c0.3,0.3,0.7,0.6,1.2,0.8c0.5,0.3,1.1,0.5,1.8,0.8c0.7,0.3,1.3,0.6,1.9,0.9
			c0.6,0.3,1,0.7,1.4,1.1c0.4,0.4,0.7,0.8,0.9,1.3c0.2,0.5,0.3,1,0.3,1.7c0,0.8-0.1,1.4-0.4,2c-0.3,0.6-0.7,1.1-1.2,1.5
			c-0.5,0.4-1.1,0.7-1.9,1C243.5,69.2,242.7,69.3,241.8,69.3z"/>
		<path class="st0" d="M257.1,66.3c0,0.4,0.1,0.7,0.2,0.9c0.1,0.2,0.2,0.4,0.4,0.5c0.2,0.1,0.4,0.2,0.6,0.2c0.2,0,0.5,0.1,0.8,0.1
			h0.6v1h-7.5v-1h0.6c0.3,0,0.5,0,0.8-0.1c0.2,0,0.5-0.1,0.6-0.2c0.2-0.1,0.3-0.3,0.4-0.5c0.1-0.2,0.2-0.5,0.2-0.9V53h-2.3
			c-0.4,0-0.7,0.1-0.9,0.2c-0.2,0.1-0.4,0.2-0.6,0.4c-0.2,0.2-0.3,0.4-0.3,0.6c-0.1,0.2-0.1,0.5-0.2,0.8l-0.1,1H249l0.1-4.2h13.6
			l0.1,4.2h-1.3l-0.1-1c0-0.3-0.1-0.5-0.2-0.8c-0.1-0.2-0.2-0.5-0.3-0.6c-0.1-0.2-0.3-0.3-0.6-0.4c-0.2-0.1-0.5-0.2-0.9-0.2h-2.3
			V66.3z"/>
		<path class="st0" d="M286.1,60.4c0,1.3-0.2,2.5-0.5,3.6c-0.3,1.1-0.8,2-1.5,2.8c-0.6,0.8-1.4,1.4-2.4,1.8c-0.9,0.4-2,0.6-3.2,0.6
			c-1.3,0-2.4-0.2-3.4-0.6c-1-0.4-1.7-1-2.4-1.8c-0.6-0.8-1.1-1.7-1.4-2.8c-0.3-1.1-0.5-2.3-0.5-3.7c0-1.3,0.2-2.6,0.5-3.6
			c0.3-1.1,0.8-2,1.4-2.8c0.6-0.8,1.4-1.4,2.4-1.8c1-0.4,2.1-0.6,3.4-0.6c1.2,0,2.3,0.2,3.2,0.6c0.9,0.4,1.7,1,2.4,1.8
			c0.6,0.8,1.1,1.7,1.5,2.8C286,57.8,286.1,59,286.1,60.4z M273.6,60.4c0,1.2,0.1,2.3,0.3,3.2c0.2,0.9,0.5,1.7,0.9,2.4
			c0.4,0.6,0.9,1.1,1.5,1.5c0.6,0.3,1.4,0.5,2.3,0.5c0.9,0,1.7-0.2,2.3-0.5c0.6-0.3,1.1-0.8,1.5-1.5c0.4-0.6,0.7-1.4,0.8-2.4
			c0.2-0.9,0.3-2,0.3-3.2c0-1.2-0.1-2.3-0.3-3.2c-0.2-0.9-0.5-1.7-0.8-2.4c-0.4-0.6-0.9-1.1-1.5-1.5c-0.6-0.3-1.4-0.5-2.3-0.5
			c-0.9,0-1.7,0.2-2.3,0.5c-0.6,0.3-1.1,0.8-1.5,1.5c-0.4,0.6-0.7,1.4-0.9,2.4C273.7,58.1,273.6,59.2,273.6,60.4z"/>
		<path class="st0" d="M293.2,53v7h5.8v1.2h-5.8v5.1c0,0.4,0.1,0.7,0.2,0.9c0.1,0.2,0.2,0.4,0.4,0.5c0.2,0.1,0.4,0.2,0.6,0.2
			c0.2,0,0.5,0.1,0.8,0.1h0.8v1h-7.5v-1h0.3c0.3,0,0.5,0,0.8-0.1c0.2,0,0.5-0.1,0.6-0.2c0.2-0.1,0.3-0.3,0.4-0.5
			c0.1-0.2,0.2-0.5,0.2-0.9v-12c0-0.4-0.1-0.6-0.2-0.9c-0.1-0.2-0.2-0.4-0.4-0.5c-0.2-0.1-0.4-0.2-0.6-0.2c-0.2,0-0.5-0.1-0.8-0.1
			h-0.3v-1h12.2l0.1,4.2h-1.3l-0.1-1c0-0.3-0.1-0.5-0.2-0.8c-0.1-0.2-0.2-0.4-0.4-0.6c-0.2-0.2-0.4-0.3-0.7-0.4
			c-0.3-0.1-0.6-0.2-1-0.2H293.2z"/>
		<path class="st0" d="M324.6,60.4c0,1.3-0.2,2.5-0.5,3.6c-0.3,1.1-0.8,2-1.5,2.8c-0.6,0.8-1.4,1.4-2.4,1.8c-0.9,0.4-2,0.6-3.2,0.6
			c-1.3,0-2.4-0.2-3.4-0.6c-1-0.4-1.7-1-2.4-1.8c-0.6-0.8-1.1-1.7-1.4-2.8c-0.3-1.1-0.5-2.3-0.5-3.7c0-1.3,0.2-2.6,0.5-3.6
			c0.3-1.1,0.8-2,1.4-2.8c0.6-0.8,1.4-1.4,2.4-1.8c1-0.4,2.1-0.6,3.4-0.6c1.2,0,2.3,0.2,3.2,0.6c0.9,0.4,1.7,1,2.4,1.8
			c0.6,0.8,1.1,1.7,1.5,2.8C324.5,57.8,324.6,59,324.6,60.4z M312.1,60.4c0,1.2,0.1,2.3,0.3,3.2c0.2,0.9,0.5,1.7,0.9,2.4
			c0.4,0.6,0.9,1.1,1.5,1.5c0.6,0.3,1.4,0.5,2.3,0.5c0.9,0,1.7-0.2,2.3-0.5c0.6-0.3,1.1-0.8,1.5-1.5c0.4-0.6,0.7-1.4,0.8-2.4
			c0.2-0.9,0.3-2,0.3-3.2c0-1.2-0.1-2.3-0.3-3.2c-0.2-0.9-0.5-1.7-0.8-2.4c-0.4-0.6-0.9-1.1-1.5-1.5c-0.6-0.3-1.4-0.5-2.3-0.5
			c-0.9,0-1.7,0.2-2.3,0.5c-0.6,0.3-1.1,0.8-1.5,1.5c-0.4,0.6-0.7,1.4-0.9,2.4C312.2,58.1,312.1,59.2,312.1,60.4z"/>
		<path class="st0" d="M334.8,69.3c-1,0-1.8-0.1-2.6-0.3c-0.8-0.2-1.4-0.5-1.9-1c-0.5-0.4-0.9-1-1.2-1.7c-0.3-0.7-0.4-1.5-0.4-2.5
			v-9.4c0-0.4-0.1-0.6-0.2-0.9c-0.1-0.2-0.2-0.4-0.4-0.5c-0.2-0.1-0.4-0.2-0.6-0.2c-0.2,0-0.5-0.1-0.8-0.1h-0.3v-1h7v1h-0.3
			c-0.3,0-0.5,0-0.8,0.1c-0.2,0-0.5,0.1-0.6,0.2c-0.2,0.1-0.3,0.3-0.4,0.5c-0.1,0.2-0.2,0.5-0.2,0.9V64c0,0.7,0.1,1.3,0.3,1.8
			c0.2,0.5,0.5,0.9,0.8,1.2c0.4,0.3,0.8,0.5,1.3,0.7c0.5,0.1,1,0.2,1.6,0.2c0.7,0,1.3-0.1,1.8-0.3c0.5-0.2,0.9-0.5,1.3-0.8
			c0.3-0.3,0.6-0.7,0.7-1.2c0.2-0.5,0.2-1,0.2-1.5v-9.6c0-0.4-0.1-0.6-0.2-0.9c-0.1-0.2-0.2-0.4-0.4-0.5c-0.2-0.1-0.4-0.2-0.6-0.2
			c-0.2,0-0.5-0.1-0.8-0.1h-0.3v-1h6.1v1h-0.3c-0.3,0-0.5,0-0.8,0.1c-0.2,0-0.5,0.1-0.6,0.2c-0.2,0.1-0.3,0.3-0.4,0.5
			c-0.1,0.2-0.2,0.5-0.2,0.9v9.6c0,0.8-0.1,1.5-0.4,2.2c-0.3,0.6-0.6,1.2-1.1,1.6c-0.5,0.4-1.1,0.8-1.9,1
			C336.6,69.2,335.7,69.3,334.8,69.3z"/>
		<path class="st0" d="M356.7,66.1c0.4,0.6,0.8,1.1,1.2,1.5c0.4,0.3,0.8,0.5,1.3,0.5h0.1v1H359c-0.8,0-1.4,0-1.9-0.1
			c-0.5-0.1-0.9-0.2-1.2-0.3c-0.3-0.2-0.6-0.4-0.9-0.7c-0.2-0.3-0.5-0.7-0.8-1.1l-3.3-5.4h-2v5c0,0.4,0.1,0.6,0.2,0.9
			c0.1,0.2,0.2,0.4,0.4,0.5c0.2,0.1,0.4,0.2,0.6,0.2c0.2,0,0.5,0.1,0.8,0.1h0.3v1h-7v-1h0.3c0.3,0,0.5,0,0.8-0.1
			c0.2,0,0.5-0.1,0.6-0.2c0.2-0.1,0.3-0.3,0.4-0.5c0.1-0.2,0.2-0.5,0.2-0.9v-12c0-0.4-0.1-0.6-0.2-0.9c-0.1-0.2-0.2-0.4-0.4-0.5
			c-0.2-0.1-0.4-0.2-0.6-0.2c-0.2,0-0.5-0.1-0.8-0.1h-0.3v-1h6.5c2.1,0,3.7,0.4,4.7,1.2c1,0.8,1.5,1.9,1.5,3.5
			c0,0.6-0.1,1.2-0.3,1.7c-0.2,0.5-0.5,0.9-0.8,1.3c-0.3,0.4-0.7,0.6-1.1,0.9c-0.4,0.2-0.8,0.4-1.3,0.6L356.7,66.1z M349,60.3h1.7
			c0.7,0,1.3-0.1,1.8-0.2c0.5-0.2,0.9-0.4,1.1-0.7c0.3-0.3,0.5-0.7,0.6-1.2c0.1-0.5,0.2-1,0.2-1.7c0-0.6-0.1-1.2-0.2-1.6
			c-0.1-0.5-0.4-0.8-0.6-1.1c-0.3-0.3-0.7-0.5-1.2-0.6c-0.5-0.1-1.1-0.2-1.7-0.2H349V60.3z"/>
	</g>
	<g>
		<path class="st0" d="M107.2,83.2c0.4-0.5,0.8-1,1.1-1.4c0.3-0.4,0.5-0.8,0.7-1.1s0.3-0.6,0.4-0.9c0.1-0.2,0.1-0.5,0.1-0.7
			c0-0.4-0.2-0.6-0.5-0.7c-0.3-0.1-0.9-0.2-1.5-0.2v-1.7h9.2v1.7c-0.5,0-0.9,0.1-1.4,0.3c-0.4,0.2-0.9,0.4-1.3,0.8
			c-0.4,0.3-0.9,0.7-1.4,1.2c-0.5,0.5-1,1-1.5,1.6l-6.1,6.8l8.8,12.3c0.8,1.1,1.6,1.9,2.3,2.5c0.7,0.6,1.5,0.8,2.3,0.8h0.1v1.8h-0.4
			c-1.4,0-2.5-0.1-3.4-0.2c-0.9-0.1-1.7-0.3-2.3-0.6c-0.6-0.3-1.1-0.7-1.6-1.2c-0.5-0.5-0.9-1.1-1.5-1.8l-7.2-10.3l-3.5,2.9v6.4
			c0,0.7,0.1,1.2,0.3,1.6c0.2,0.4,0.4,0.7,0.7,0.9c0.3,0.2,0.7,0.4,1.1,0.4c0.4,0.1,0.9,0.1,1.3,0.1h0.6v1.8H90.4v-1.8h0.5
			c0.5,0,0.9,0,1.3-0.1c0.4-0.1,0.8-0.2,1.1-0.4c0.3-0.2,0.6-0.5,0.7-0.8c0.2-0.4,0.3-0.9,0.3-1.5V81.2c0-0.6-0.1-1.1-0.3-1.5
			c-0.2-0.4-0.4-0.7-0.7-0.9c-0.3-0.2-0.7-0.3-1.1-0.4c-0.4-0.1-0.9-0.1-1.3-0.1h-0.5v-1.8h12.2v1.8H102c-0.5,0-0.9,0-1.3,0.1
			c-0.4,0.1-0.8,0.2-1.1,0.4c-0.3,0.2-0.6,0.5-0.7,0.9c-0.2,0.4-0.3,0.9-0.3,1.6v11.8L107.2,83.2z"/>
		<path class="st0" d="M141.8,106.4l-15.7-24.1v19.3c0,0.7,0.1,1.2,0.3,1.6c0.2,0.4,0.4,0.7,0.7,0.9c0.3,0.2,0.7,0.4,1.1,0.4
			c0.4,0.1,0.9,0.1,1.3,0.1h0.6v1.8h-10.5v-1.8h0.5c0.5,0,0.9,0,1.3-0.1c0.4-0.1,0.8-0.2,1.1-0.4c0.3-0.2,0.6-0.5,0.7-0.9
			c0.2-0.4,0.3-0.9,0.3-1.6V81.2c0-0.6-0.1-1.1-0.3-1.5c-0.2-0.4-0.4-0.7-0.7-0.9c-0.3-0.2-0.7-0.3-1.1-0.4
			c-0.4-0.1-0.9-0.1-1.3-0.1h-0.5v-1.8h7.6l14.9,23.1V81.2c0-0.6-0.1-1.1-0.3-1.5c-0.2-0.4-0.4-0.7-0.7-0.9
			c-0.3-0.2-0.7-0.3-1.1-0.4c-0.4-0.1-0.9-0.1-1.3-0.1h-0.6v-1.8h10.5v1.8h-0.5c-0.5,0-0.9,0-1.3,0.1c-0.4,0.1-0.8,0.2-1.1,0.4
			c-0.3,0.2-0.6,0.5-0.7,0.9c-0.2,0.4-0.3,0.9-0.3,1.6v25.1H141.8z"/>
		<path class="st0" d="M178.5,91.4c0,2.3-0.3,4.4-0.9,6.3c-0.6,1.9-1.4,3.5-2.5,4.9c-1.1,1.3-2.5,2.4-4.1,3.1
			c-1.6,0.7-3.5,1.1-5.6,1.1c-2.2,0-4.1-0.4-5.8-1.1c-1.6-0.7-3-1.8-4.1-3.1c-1.1-1.3-1.9-3-2.4-4.9c-0.5-1.9-0.8-4-0.8-6.3
			c0-2.3,0.3-4.4,0.8-6.3c0.5-1.9,1.4-3.5,2.4-4.8c1.1-1.3,2.5-2.4,4.1-3.1c1.7-0.7,3.6-1.1,5.8-1.1c2.1,0,4,0.4,5.6,1.1
			c1.6,0.7,3,1.8,4.1,3.1c1.1,1.3,2,2.9,2.5,4.8C178.2,87,178.5,89.1,178.5,91.4z M156.9,91.4c0,2.1,0.2,3.9,0.5,5.5
			c0.3,1.6,0.8,3,1.5,4.1c0.7,1.1,1.6,2,2.6,2.6s2.4,0.9,3.9,0.9c1.5,0,2.9-0.3,3.9-0.9c1.1-0.6,2-1.4,2.6-2.6
			c0.7-1.1,1.2-2.5,1.5-4.1c0.3-1.6,0.4-3.5,0.4-5.5c0-2.1-0.1-3.9-0.4-5.5c-0.3-1.6-0.8-3-1.5-4.1c-0.7-1.1-1.5-2-2.6-2.5
			c-1.1-0.6-2.4-0.9-3.9-0.9c-1.5,0-2.9,0.3-4,0.9c-1.1,0.6-2,1.4-2.7,2.5c-0.7,1.1-1.2,2.5-1.5,4.1C157,87.5,156.9,89.4,156.9,91.4
			z"/>
		<path class="st0" d="M204.1,76.9l5.2,18.1c0.4,1.4,0.7,2.7,1,4c0.3,1.3,0.6,2.4,0.7,3.4c0.2-1,0.4-2.1,0.7-3.2
			c0.3-1.1,0.6-2.3,1-3.7l3.7-12.9c0-0.2,0.1-0.3,0.1-0.6c0.1-0.2,0.1-0.4,0.1-0.6c0-0.2,0.1-0.4,0.1-0.6c0-0.2,0.1-0.3,0.1-0.4
			c0-0.7-0.2-1.2-0.7-1.6c-0.5-0.3-1.1-0.5-2.1-0.5h-1v-1.8h10.2v1.8h-0.8c-0.4,0-0.8,0-1.1,0.1c-0.3,0.1-0.6,0.2-0.8,0.5
			c-0.2,0.2-0.5,0.6-0.7,1c-0.2,0.4-0.4,1-0.6,1.7l-7.1,24.8h-3.8L201.8,83l-6.4,23.4h-3.9l-7.6-25.9c-0.1-0.4-0.3-0.8-0.5-1.1
			c-0.2-0.3-0.4-0.5-0.6-0.7c-0.2-0.2-0.5-0.3-0.8-0.3c-0.3-0.1-0.7-0.1-1.1-0.1h-0.6v-1.8h11.5v1.8h-1c-0.8,0-1.5,0.2-1.9,0.5
			c-0.4,0.3-0.6,0.8-0.6,1.5c0,0.2,0,0.5,0.1,0.7c0.1,0.2,0.1,0.5,0.2,0.8l3.8,13.4c0.4,1.3,0.7,2.5,1,3.7s0.6,2.3,0.8,3.3
			c0.2-1.1,0.4-2.3,0.7-3.6c0.3-1.3,0.6-2.6,1-3.9l5-17.9H204.1z"/>
		<path class="st0" d="M225.4,106.4v-1.8h0.5c0.5,0,0.9,0,1.3-0.1c0.4-0.1,0.8-0.2,1.1-0.4c0.3-0.2,0.6-0.5,0.7-0.9
			c0.2-0.4,0.3-0.9,0.3-1.6V81.3c0-0.7-0.1-1.2-0.3-1.6c-0.2-0.4-0.4-0.7-0.7-0.9c-0.3-0.2-0.7-0.4-1.1-0.4
			c-0.4-0.1-0.9-0.1-1.3-0.1h-0.5v-1.8h12.2v1.8H237c-0.5,0-0.9,0-1.3,0.1c-0.4,0.1-0.8,0.2-1.1,0.4c-0.3,0.2-0.6,0.5-0.7,0.9
			c-0.2,0.4-0.3,0.9-0.3,1.5v23.1h8.2c0.6,0,1.2-0.1,1.6-0.3c0.4-0.2,0.8-0.5,1.1-0.9c0.3-0.4,0.5-0.8,0.7-1.2
			c0.2-0.4,0.3-0.9,0.3-1.3l0.4-3.1h2.2l-0.3,9H225.4z"/>
		<path class="st0" d="M259.6,104.3h8.1c0.7,0,1.2-0.1,1.7-0.3c0.5-0.2,0.9-0.4,1.2-0.7s0.6-0.7,0.7-1.1c0.2-0.4,0.3-0.9,0.4-1.3
			l0.3-1.8h2.2l-0.3,7.3h-22.4v-1.8h0.5c0.5,0,0.9,0,1.3-0.1c0.4-0.1,0.8-0.2,1.1-0.4c0.3-0.2,0.6-0.5,0.7-0.8
			c0.2-0.4,0.3-0.9,0.3-1.5V81.3c0-0.7-0.1-1.2-0.3-1.6c-0.2-0.4-0.4-0.7-0.7-0.9c-0.3-0.2-0.7-0.4-1.1-0.4
			c-0.4-0.1-0.9-0.1-1.3-0.1h-0.5v-1.8h21l0.2,7.3h-2.2l-0.2-1.8c-0.1-0.5-0.2-0.9-0.3-1.3c-0.2-0.4-0.4-0.8-0.7-1.1
			c-0.3-0.3-0.7-0.6-1.1-0.7c-0.4-0.2-1-0.3-1.6-0.3h-7v11.1h10.1v2h-10.1V104.3z"/>
		<path class="st0" d="M303.8,91.4c0,2.3-0.3,4.3-0.9,6.2c-0.6,1.8-1.4,3.4-2.5,4.7c-1.1,1.3-2.5,2.3-4.2,3c-1.7,0.7-3.7,1-6,1
			h-12.8v-1.8h0.5c0.5,0,0.9,0,1.3-0.1c0.4-0.1,0.8-0.2,1.1-0.4c0.3-0.2,0.6-0.5,0.7-0.9c0.2-0.4,0.3-0.9,0.3-1.6V81.2
			c0-0.6-0.1-1.1-0.3-1.5c-0.2-0.4-0.4-0.7-0.7-0.9c-0.3-0.2-0.7-0.3-1.1-0.4c-0.4-0.1-0.9-0.1-1.3-0.1h-0.5v-1.8h12.8
			c2.1,0,4.1,0.3,5.7,1c1.7,0.7,3.1,1.6,4.3,2.9c1.2,1.3,2,2.8,2.7,4.7C303.5,87,303.8,89.1,303.8,91.4z M289.2,104.3
			c1.7,0,3.1-0.3,4.4-0.8c1.2-0.6,2.3-1.4,3.1-2.5c0.8-1.1,1.5-2.4,1.9-4c0.4-1.6,0.6-3.4,0.6-5.5c0-4.1-0.8-7.3-2.5-9.5
			c-1.7-2.2-4.1-3.3-7.4-3.3h-3.7v25.6H289.2z"/>
		<path class="st0" d="M322.9,106.8c-2.4,0-4.5-0.4-6.3-1.1c-1.8-0.7-3.3-1.8-4.5-3.1c-1.2-1.3-2.1-3-2.7-4.9
			c-0.6-1.9-0.9-4-0.9-6.3c0-2.3,0.3-4.3,0.9-6.2c0.6-1.9,1.5-3.5,2.8-4.8c1.2-1.3,2.8-2.4,4.6-3.1c1.8-0.7,3.9-1.1,6.3-1.1
			c1.5,0,2.9,0.1,4,0.4c1.1,0.2,2.1,0.6,2.9,1c0.8,0.4,1.3,0.9,1.7,1.5c0.4,0.6,0.6,1.2,0.6,1.9c0,0.4-0.1,0.9-0.3,1.2
			c-0.2,0.4-0.5,0.7-0.8,0.9c-0.3,0.3-0.8,0.4-1.2,0.6c-0.5,0.1-1,0.2-1.5,0.2c0-0.7-0.1-1.3-0.3-1.9c-0.2-0.6-0.5-1.2-0.9-1.7
			c-0.4-0.5-1-0.9-1.7-1.2c-0.7-0.3-1.6-0.5-2.6-0.5c-1.8,0-3.3,0.3-4.5,0.9c-1.2,0.6-2.3,1.4-3,2.5c-0.8,1.1-1.4,2.5-1.7,4.1
			c-0.4,1.6-0.5,3.5-0.5,5.6c0,2.1,0.2,3.9,0.6,5.5c0.4,1.6,1,3,1.8,4.1c0.8,1.1,1.9,1.9,3.2,2.5c1.3,0.6,2.9,0.9,4.8,0.9
			c0.8,0,1.6,0,2.3-0.1c0.8-0.1,1.4-0.2,2-0.4v-6.7c0-0.6-0.1-1.1-0.3-1.5c-0.2-0.4-0.4-0.7-0.7-0.9c-0.3-0.2-0.7-0.3-1.1-0.4
			c-0.4-0.1-0.9-0.1-1.3-0.1h-0.2v-1.8h10.8v1.8H335c-0.4,0-0.8,0-1.1,0.1c-0.4,0.1-0.7,0.2-0.9,0.4c-0.3,0.2-0.5,0.5-0.6,0.9
			c-0.1,0.4-0.2,0.9-0.2,1.6v7.5c-1.4,0.7-2.8,1.1-4.3,1.4C326.3,106.6,324.7,106.8,322.9,106.8z"/>
		<path class="st0" d="M345.7,104.3h8.1c0.7,0,1.2-0.1,1.7-0.3c0.5-0.2,0.9-0.4,1.2-0.7s0.6-0.7,0.7-1.1c0.2-0.4,0.3-0.9,0.4-1.3
			l0.3-1.8h2.2l-0.3,7.3h-22.4v-1.8h0.5c0.5,0,0.9,0,1.3-0.1c0.4-0.1,0.8-0.2,1.1-0.4c0.3-0.2,0.6-0.5,0.7-0.8
			c0.2-0.4,0.3-0.9,0.3-1.5V81.3c0-0.7-0.1-1.2-0.3-1.6c-0.2-0.4-0.4-0.7-0.7-0.9c-0.3-0.2-0.7-0.4-1.1-0.4
			c-0.4-0.1-0.9-0.1-1.3-0.1h-0.5v-1.8h21l0.2,7.3h-2.2l-0.2-1.8c-0.1-0.5-0.2-0.9-0.3-1.3c-0.2-0.4-0.4-0.8-0.7-1.1
			c-0.3-0.3-0.7-0.6-1.1-0.7c-0.4-0.2-1-0.3-1.6-0.3h-7v11.1h10.1v2h-10.1V104.3z"/>
	</g>
	<path class="st1" d="M50.6,40.5c4.8,0.2,8.5-0.7,8.5-0.7c3.2,5.5,2.4,10.6,2.4,10.6c-0.4,3.2-1.2,5.1-1.2,5.1
		c-5.1-3-7.7-8.1-7.7-8.1C50.8,43.9,50.6,40.5,50.6,40.5z"/>
	<path class="st1" d="M76,60.1c-2.8,6-12.1,6.9-12.1,6.9c3.6-3.6,4.1-8.1,4.1-8.1c-4.1-1.3-6.6-2.8-6.6-2.8
		c3.8-9.8-1.1-16.7-1.1-16.7c9.3-2.5,13.1-8.4,13.1-8.4c5.4-6.8,2.9-13.9,2.9-13.9c12.6-1,21.1,5,21.1,5c8.9,5.7,9.8,13.6,9.8,13.6
		c1.3,6.6-2.5,12.2-2.5,12.2c-4.1,6.8-12.8,9.9-12.8,9.9C84,61.1,76,60.1,76,60.1z"/>
	<g>
		<path class="st2" d="M59.7,38.3c-3.3-4.9-7.4-7.2-7.4-7.2C57,22,67.4,19,67.4,19c3.4-1.2,7.7-1.7,7.7-1.7
			c2.8,8.2-3.9,14.7-3.9,14.7C65.9,37.1,59.7,38.3,59.7,38.3z"/>
		<path class="st2" d="M50.9,30.2c-7.6-4.5-16.6-4.6-16.6-4.6c-3.4-0.1-5.4,0.2-5.4,0.2C26.4,17.6,32,11.7,32,11.7
			c5-6.2,14-7.7,14-7.7c9.4-1.8,16.8,1.4,16.8,1.4c9.5,3.9,11.7,10.3,11.7,10.3c-10.9,1.1-18,7.5-18,7.5
			C52.3,27,50.9,30.2,50.9,30.2z"/>
	</g>
	<g>
		<path class="st0" d="M39.2,45c1.8-1.6,3.5-6.8,3.5-6.8C31.5,34.8,29.3,27,29.3,27c12.5-1.2,21.1,4.4,21.1,4.4
			c-2,4.7-1.5,8.8-1.5,8.8C46.3,44.2,39.2,45,39.2,45z"/>
		<path class="st0" d="M49.1,42c-5.1,5.2-14.1,4.4-14.1,4.4c5.6-2.9,6.2-7.3,6.2-7.3C30.4,35.3,28,27.2,28,27.2
			C14.1,29.1,8.2,37.5,8.2,37.5c-4.3,5.2-4.1,10.9-4.1,10.9c-0.2,7.7,5.5,13.1,5.5,13.1c6.5,6.8,16.4,8.4,16.4,8.4
			c5.3,1,9.7,0.5,9.7,0.5c3.3,6.4,12.9,7,12.9,7c-4.1-3.7-4.5-8.3-4.5-8.3c7.1-2,11.5-6.4,11.5-6.4c2.9-3,4-5.5,4-5.5
			C49.9,51,49.1,42,49.1,42z"/>
		<path class="st0" d="M60.5,59c-3.5,6.6-7.7,8.8-7.7,8.8c-0.6,22-5.3,39.9-5.3,39.9c7.4,2.6,20.2-0.5,20.2-0.5
			C59.4,89.9,60.5,59,60.5,59z"/>
		<path class="st0" d="M50.5,39.3c-0.2-3.9,1.3-7,1.3-7c4.6,3.1,6.6,6.4,6.6,6.4C53.6,39.6,50.5,39.3,50.5,39.3z"/>
	</g>
</g>
</svg>
