<svg id="Layer_1" data-name="Layer 1" xmlns="http://www.w3.org/2000/svg" viewBox="0 0 356.09 105.3"><defs><style>.cls-1{fill:#fff;}.cls-2{fill:#facd0c;}.cls-3{fill:#5cb050;}.cls-4{fill:#2f7ab7;}</style></defs><title>TTBOOK_color_reverse</title><path class="cls-1" d="M119.71,66.29a2.17,2.17,0,0,0,.16.91,1.27,1.27,0,0,0,.42.53,1.52,1.52,0,0,0,.63.24,4.78,4.78,0,0,0,.77.06h.55v1h-7.52V68h.55A5.19,5.19,0,0,0,116,68a1.66,1.66,0,0,0,.63-.22,1.14,1.14,0,0,0,.43-.49,2,2,0,0,0,.16-.86V53h-2.31a2.21,2.21,0,0,0-.89.16,1.62,1.62,0,0,0-.59.43,1.79,1.79,0,0,0-.34.63A4.2,4.2,0,0,0,113,55l-.13,1h-1.25l.12-4.23h13.61l.12,4.23h-1.25l-.12-1a3.93,3.93,0,0,0-.17-.76,1.92,1.92,0,0,0-.34-.63,1.56,1.56,0,0,0-.59-.43,2.29,2.29,0,0,0-.91-.16h-2.35Z" transform="translate(-4.14 -3.41)"/><path class="cls-1" d="M142,60.39a12.54,12.54,0,0,1-.5,3.64A8,8,0,0,1,140,66.83a6.53,6.53,0,0,1-2.38,1.81,7.84,7.84,0,0,1-3.25.64,8.17,8.17,0,0,1-3.35-.64,6.3,6.3,0,0,1-2.37-1.81A7.87,7.87,0,0,1,127.26,64a14.32,14.32,0,0,1,0-7.29,7.75,7.75,0,0,1,1.42-2.79,6.28,6.28,0,0,1,2.38-1.79,8.32,8.32,0,0,1,3.36-.63,7.82,7.82,0,0,1,3.23.63A6.53,6.53,0,0,1,140,53.94a7.9,7.9,0,0,1,1.46,2.8A12.56,12.56,0,0,1,142,60.39Zm-12.52,0a17.41,17.41,0,0,0,.27,3.2,7.1,7.1,0,0,0,.86,2.38,4,4,0,0,0,1.53,1.49,5.33,5.33,0,0,0,4.57,0A4,4,0,0,0,138.21,66a7.1,7.1,0,0,0,.84-2.38,19.89,19.89,0,0,0,0-6.41,7,7,0,0,0-.84-2.38,4,4,0,0,0-1.51-1.48,4.67,4.67,0,0,0-2.27-.51,4.78,4.78,0,0,0-2.29.51,4,4,0,0,0-1.54,1.48,7,7,0,0,0-.86,2.38A17.42,17.42,0,0,0,129.47,60.39Z" transform="translate(-4.14 -3.41)"/><path class="cls-1" d="M158.25,66.29a2.17,2.17,0,0,0,.16.91,1.26,1.26,0,0,0,.42.53,1.52,1.52,0,0,0,.63.24,4.78,4.78,0,0,0,.77.06h.55v1h-7.52V68h.55a5.19,5.19,0,0,0,.76-.05,1.66,1.66,0,0,0,.63-.22,1.14,1.14,0,0,0,.43-.49,2,2,0,0,0,.16-.86V53H153.5a2.21,2.21,0,0,0-.89.16,1.62,1.62,0,0,0-.59.43,1.79,1.79,0,0,0-.34.63,4.19,4.19,0,0,0-.16.76l-.13,1h-1.25l.12-4.23h13.61L164,56h-1.25l-.12-1a3.93,3.93,0,0,0-.17-.76,1.92,1.92,0,0,0-.34-.63,1.55,1.55,0,0,0-.59-.43,2.29,2.29,0,0,0-.91-.16h-2.35Z" transform="translate(-4.14 -3.41)"/><path class="cls-1" d="M175.67,69V68H176a4.75,4.75,0,0,0,.77-.06,1.51,1.51,0,0,0,.63-.24,1.27,1.27,0,0,0,.43-.53,2.18,2.18,0,0,0,.16-.91V60.62h-7.86v5.67a2.17,2.17,0,0,0,.16.91,1.27,1.27,0,0,0,.42.53,1.52,1.52,0,0,0,.63.24,4.78,4.78,0,0,0,.77.06h.32v1h-7V68h.31a4.75,4.75,0,0,0,.77-.06,1.56,1.56,0,0,0,.63-.24,1.21,1.21,0,0,0,.43-.53,2.26,2.26,0,0,0,.15-.91V54.44a2,2,0,0,0-.16-.86,1.22,1.22,0,0,0-.43-.5,1.56,1.56,0,0,0-.63-.23,5.26,5.26,0,0,0-.76-.05h-.31v-1h7v1h-.32a4.84,4.84,0,0,0-.77.06,1.52,1.52,0,0,0-.63.24,1.27,1.27,0,0,0-.42.52,2.18,2.18,0,0,0-.16.91v4.89H178V54.53a2.18,2.18,0,0,0-.16-.91,1.27,1.27,0,0,0-.43-.52,1.52,1.52,0,0,0-.63-.24,4.81,4.81,0,0,0-.77-.06h-.32v-1h7v1h-.31a4.81,4.81,0,0,0-.77.06,1.56,1.56,0,0,0-.63.24,1.21,1.21,0,0,0-.42.52,2.25,2.25,0,0,0-.15.91V66.41a2,2,0,0,0,.16.86,1.14,1.14,0,0,0,.43.49,1.66,1.66,0,0,0,.63.22,5.19,5.19,0,0,0,.76.05h.31v1Z" transform="translate(-4.14 -3.41)"/><path class="cls-1" d="M189.28,67.83h4.66a2.7,2.7,0,0,0,1-.16,1.94,1.94,0,0,0,.68-.43,2,2,0,0,0,.42-.63,3.1,3.1,0,0,0,.21-.76l.16-1h1.26L197.51,69h-13V68h.31a5.19,5.19,0,0,0,.76-.05,1.66,1.66,0,0,0,.63-.22,1.14,1.14,0,0,0,.43-.49,2,2,0,0,0,.16-.86V54.53a2.26,2.26,0,0,0-.15-.91,1.21,1.21,0,0,0-.43-.52,1.57,1.57,0,0,0-.63-.24,4.81,4.81,0,0,0-.77-.06h-.31v-1h12.18l.12,4.23H195.6l-.12-1a3.19,3.19,0,0,0-.18-.76,1.9,1.9,0,0,0-.39-.63,1.81,1.81,0,0,0-.64-.43,2.42,2.42,0,0,0-.93-.16h-4.06v6.43h5.83V60.6h-5.83Z" transform="translate(-4.14 -3.41)"/><path class="cls-1" d="M218.58,56.1a4,4,0,0,1-.23,1.43,3.46,3.46,0,0,1-.63,1.07,3.64,3.64,0,0,1-1,.77,6.63,6.63,0,0,1-1.19.53V60a5.41,5.41,0,0,1,1.51.48,3.91,3.91,0,0,1,1.17.89,4,4,0,0,1,.76,1.3,5,5,0,0,1,.27,1.71,4.11,4.11,0,0,1-1.53,3.5A7.71,7.71,0,0,1,213.09,69h-7.2V68h.31A4.76,4.76,0,0,0,207,68a1.56,1.56,0,0,0,.63-.24,1.21,1.21,0,0,0,.42-.53,2.25,2.25,0,0,0,.15-.91V54.44a2,2,0,0,0-.16-.86,1.23,1.23,0,0,0-.43-.5,1.56,1.56,0,0,0-.63-.23,5.24,5.24,0,0,0-.76-.05h-.31v-1h6.48a8.39,8.39,0,0,1,4.67,1A3.68,3.68,0,0,1,218.58,56.1Zm-8,3.29h1.68a7,7,0,0,0,1.77-.19,2.63,2.63,0,0,0,1.13-.58,2.2,2.2,0,0,0,.61-1,5.38,5.38,0,0,0,.18-1.5,4.7,4.7,0,0,0-.2-1.48,2.06,2.06,0,0,0-.65-1,2.72,2.72,0,0,0-1.16-.52,8.45,8.45,0,0,0-1.74-.15h-1.62Zm0,8.44H213a6.84,6.84,0,0,0,1.74-.19,2.67,2.67,0,0,0,1.16-.61,2.4,2.4,0,0,0,.65-1.09,5.8,5.8,0,0,0,.2-1.64,6.71,6.71,0,0,0-.18-1.64,2.44,2.44,0,0,0-1.75-1.84A6,6,0,0,0,213,60.6h-2.4Z" transform="translate(-4.14 -3.41)"/><path class="cls-1" d="M226.43,67.83h4.66a2.7,2.7,0,0,0,1-.16,1.94,1.94,0,0,0,.68-.43,2,2,0,0,0,.42-.63,3.1,3.1,0,0,0,.21-.76l.16-1h1.26L234.65,69h-13V68H222a5.18,5.18,0,0,0,.76-.05,1.66,1.66,0,0,0,.63-.22,1.14,1.14,0,0,0,.43-.49,2,2,0,0,0,.16-.86V54.53a2.25,2.25,0,0,0-.15-.91,1.21,1.21,0,0,0-.42-.52,1.57,1.57,0,0,0-.63-.24,4.82,4.82,0,0,0-.77-.06h-.31v-1h12.18L234,56h-1.25l-.12-1a3.19,3.19,0,0,0-.18-.76,1.91,1.91,0,0,0-.39-.63,1.81,1.81,0,0,0-.64-.43,2.42,2.42,0,0,0-.93-.16h-4.06v6.43h5.83V60.6h-5.83Z" transform="translate(-4.14 -3.41)"/><path class="cls-1" d="M241.81,69.27a7.92,7.92,0,0,1-2.08-.25,4.64,4.64,0,0,1-1.51-.69,2.87,2.87,0,0,1-.91-1.07,3.12,3.12,0,0,1-.31-1.39,1.58,1.58,0,0,1,.46-1.18,1.76,1.76,0,0,1,1.29-.45A6.49,6.49,0,0,0,239,65.7a3.77,3.77,0,0,0,.58,1.23,2.88,2.88,0,0,0,1,.85,3.07,3.07,0,0,0,1.45.32,3.78,3.78,0,0,0,2.54-.78,2.81,2.81,0,0,0,.92-2.26,3.36,3.36,0,0,0-.19-1.17,2.59,2.59,0,0,0-.63-.94,5.27,5.27,0,0,0-1.15-.83,17.34,17.34,0,0,0-1.78-.83,12.91,12.91,0,0,1-2-1,6.08,6.08,0,0,1-1.39-1.17,4.35,4.35,0,0,1-.83-1.43,5.48,5.48,0,0,1-.27-1.78,4.19,4.19,0,0,1,.4-1.85,3.91,3.91,0,0,1,1.1-1.37,5,5,0,0,1,1.68-.86,7.22,7.22,0,0,1,2.11-.29,7.47,7.47,0,0,1,1.92.22,4.9,4.9,0,0,1,1.42.6,2.81,2.81,0,0,1,.88.87,1.93,1.93,0,0,1,.3,1,1.39,1.39,0,0,1-.51,1.17,2.22,2.22,0,0,1-1.39.39A4.61,4.61,0,0,0,245,54.7a2.74,2.74,0,0,0-.45-1,2.42,2.42,0,0,0-.84-.7,2.76,2.76,0,0,0-1.29-.27,3.71,3.71,0,0,0-1.25.19,2.56,2.56,0,0,0-.93.55,2.4,2.4,0,0,0-.58.87,3.06,3.06,0,0,0-.2,1.13,3.89,3.89,0,0,0,.19,1.27,2.59,2.59,0,0,0,.63,1,5.14,5.14,0,0,0,1.16.84,16.93,16.93,0,0,0,1.77.82,15.53,15.53,0,0,1,1.89.92,6.51,6.51,0,0,1,1.41,1.08,4.26,4.26,0,0,1,.89,1.33,4.33,4.33,0,0,1,.31,1.67,4.81,4.81,0,0,1-.42,2,4.21,4.21,0,0,1-1.2,1.53,5.41,5.41,0,0,1-1.88,1A8.64,8.64,0,0,1,241.81,69.27Z" transform="translate(-4.14 -3.41)"/><path class="cls-1" d="M257.1,66.29a2.17,2.17,0,0,0,.16.91,1.27,1.27,0,0,0,.42.53,1.52,1.52,0,0,0,.63.24,4.77,4.77,0,0,0,.77.06h.55v1h-7.52V68h.55a5.2,5.2,0,0,0,.76-.05,1.67,1.67,0,0,0,.63-.22,1.14,1.14,0,0,0,.43-.49,2,2,0,0,0,.16-.86V53h-2.31a2.2,2.2,0,0,0-.89.16,1.62,1.62,0,0,0-.59.43,1.78,1.78,0,0,0-.34.63,4.16,4.16,0,0,0-.16.76l-.13,1H249l.12-4.23h13.61l.12,4.23h-1.25l-.12-1a3.86,3.86,0,0,0-.17-.76,1.91,1.91,0,0,0-.34-.63,1.55,1.55,0,0,0-.59-.43,2.28,2.28,0,0,0-.91-.16H257.1Z" transform="translate(-4.14 -3.41)"/><path class="cls-1" d="M286.15,60.39a12.55,12.55,0,0,1-.5,3.64,7.94,7.94,0,0,1-1.46,2.81,6.52,6.52,0,0,1-2.38,1.81,7.84,7.84,0,0,1-3.25.64,8.17,8.17,0,0,1-3.35-.64,6.29,6.29,0,0,1-2.37-1.81A7.86,7.86,0,0,1,271.42,64a14.33,14.33,0,0,1,0-7.29,7.75,7.75,0,0,1,1.42-2.79,6.27,6.27,0,0,1,2.38-1.79,8.32,8.32,0,0,1,3.36-.63,7.82,7.82,0,0,1,3.23.63,6.52,6.52,0,0,1,2.37,1.79,7.88,7.88,0,0,1,1.46,2.8A12.58,12.58,0,0,1,286.15,60.39Zm-12.52,0a17.46,17.46,0,0,0,.27,3.2,7.12,7.12,0,0,0,.86,2.38,4,4,0,0,0,1.53,1.49,5.33,5.33,0,0,0,4.57,0A4,4,0,0,0,282.36,66a7.1,7.1,0,0,0,.84-2.38,19.89,19.89,0,0,0,0-6.41,7,7,0,0,0-.84-2.38,4,4,0,0,0-1.51-1.48,4.67,4.67,0,0,0-2.27-.51,4.78,4.78,0,0,0-2.29.51,4,4,0,0,0-1.54,1.48,7,7,0,0,0-.86,2.38A17.46,17.46,0,0,0,273.62,60.39Z" transform="translate(-4.14 -3.41)"/><path class="cls-1" d="M293.18,53v7H299v1.18h-5.83v5.13a2.19,2.19,0,0,0,.16.91,1.27,1.27,0,0,0,.42.53,1.52,1.52,0,0,0,.63.24,4.79,4.79,0,0,0,.77.06h.8v1h-7.52V68h.31a5.18,5.18,0,0,0,.76-.05,1.66,1.66,0,0,0,.63-.22,1.14,1.14,0,0,0,.43-.49,2,2,0,0,0,.16-.86v-12a2,2,0,0,0-.16-.86,1.23,1.23,0,0,0-.43-.5,1.56,1.56,0,0,0-.63-.23,5.24,5.24,0,0,0-.76-.05h-.31v-1h12.18l.12,4.23H299.5l-.12-1a3,3,0,0,0-.19-.77,1.82,1.82,0,0,0-.41-.63,1.94,1.94,0,0,0-.67-.43,2.63,2.63,0,0,0-1-.16Z" transform="translate(-4.14 -3.41)"/><path class="cls-1" d="M324.62,60.39a12.55,12.55,0,0,1-.5,3.64,7.94,7.94,0,0,1-1.46,2.81,6.52,6.52,0,0,1-2.38,1.81,7.84,7.84,0,0,1-3.25.64,8.17,8.17,0,0,1-3.35-.64,6.29,6.29,0,0,1-2.37-1.81A7.87,7.87,0,0,1,309.89,64a14.34,14.34,0,0,1,0-7.29,7.75,7.75,0,0,1,1.42-2.79,6.27,6.27,0,0,1,2.38-1.79,8.32,8.32,0,0,1,3.36-.63,7.82,7.82,0,0,1,3.23.63,6.52,6.52,0,0,1,2.37,1.79,7.88,7.88,0,0,1,1.46,2.8A12.58,12.58,0,0,1,324.62,60.39Zm-12.52,0a17.45,17.45,0,0,0,.27,3.2,7.12,7.12,0,0,0,.86,2.38,4,4,0,0,0,1.53,1.49,5.33,5.33,0,0,0,4.57,0A4,4,0,0,0,320.84,66a7.1,7.1,0,0,0,.84-2.38,19.9,19.9,0,0,0,0-6.41,7,7,0,0,0-.84-2.38,4,4,0,0,0-1.51-1.48,4.67,4.67,0,0,0-2.27-.51,4.78,4.78,0,0,0-2.29.51,4,4,0,0,0-1.54,1.48,7,7,0,0,0-.86,2.38A17.45,17.45,0,0,0,312.1,60.39Z" transform="translate(-4.14 -3.41)"/><path class="cls-1" d="M334.75,69.27a10,10,0,0,1-2.56-.3,4.92,4.92,0,0,1-1.92-1,4.16,4.16,0,0,1-1.2-1.69,6.76,6.76,0,0,1-.41-2.51V54.44a2,2,0,0,0-.16-.86,1.23,1.23,0,0,0-.43-.5,1.56,1.56,0,0,0-.63-.23,5.25,5.25,0,0,0-.76-.05h-.31v-1h7v1h-.32a4.85,4.85,0,0,0-.77.06,1.53,1.53,0,0,0-.63.24,1.27,1.27,0,0,0-.42.52,2.19,2.19,0,0,0-.16.91V64a4.74,4.74,0,0,0,.3,1.79,3.09,3.09,0,0,0,.84,1.2,3.36,3.36,0,0,0,1.28.67,5.85,5.85,0,0,0,1.62.21,5.2,5.2,0,0,0,1.81-.28,3.47,3.47,0,0,0,1.26-.78,3.13,3.13,0,0,0,.74-1.19,4.57,4.57,0,0,0,.24-1.52V54.44a2,2,0,0,0-.16-.86,1.23,1.23,0,0,0-.43-.5,1.56,1.56,0,0,0-.63-.23,5.25,5.25,0,0,0-.76-.05h-.31v-1H343v1h-.32a4.83,4.83,0,0,0-.77.06,1.52,1.52,0,0,0-.63.24,1.27,1.27,0,0,0-.42.52,2.17,2.17,0,0,0-.16.91V64.1a5.8,5.8,0,0,1-.38,2.17,4.26,4.26,0,0,1-1.13,1.63,5.07,5.07,0,0,1-1.86,1A8.37,8.37,0,0,1,334.75,69.27Z" transform="translate(-4.14 -3.41)"/><path class="cls-1" d="M356.73,66.09a6.23,6.23,0,0,0,1.19,1.45,2,2,0,0,0,1.35.48h.07v1H359a17,17,0,0,1-1.86-.08,4,4,0,0,1-1.23-.32A2.51,2.51,0,0,1,355,68a8.67,8.67,0,0,1-.77-1.11L351,61.43h-2v5a2,2,0,0,0,.16.86,1.14,1.14,0,0,0,.43.49,1.67,1.67,0,0,0,.63.22A5.2,5.2,0,0,0,351,68h.32v1h-7V68h.31a5.17,5.17,0,0,0,.76-.05,1.66,1.66,0,0,0,.63-.22,1.14,1.14,0,0,0,.43-.49,2,2,0,0,0,.16-.86v-12a2,2,0,0,0-.16-.86,1.23,1.23,0,0,0-.43-.5,1.56,1.56,0,0,0-.63-.23,5.24,5.24,0,0,0-.76-.05h-.31v-1h6.5a7.71,7.71,0,0,1,4.67,1.16,4.11,4.11,0,0,1,1.53,3.5,4.1,4.1,0,0,1-1.13,3,4.78,4.78,0,0,1-1.14.88,7.48,7.48,0,0,1-1.28.57ZM349,60.29h1.7a5.65,5.65,0,0,0,1.77-.24,2.58,2.58,0,0,0,1.13-.71,2.77,2.77,0,0,0,.61-1.18,6.64,6.64,0,0,0,.18-1.65,5.86,5.86,0,0,0-.2-1.65,2.48,2.48,0,0,0-.65-1.11,2.65,2.65,0,0,0-1.16-.63,6.71,6.71,0,0,0-1.74-.19H349Z" transform="translate(-4.14 -3.41)"/><path class="cls-1" d="M107.23,83.21q.67-.77,1.12-1.38a8.19,8.19,0,0,0,.7-1.09,5.2,5.2,0,0,0,.37-.86,2.32,2.32,0,0,0,.11-.67.72.72,0,0,0-.51-.72,4.64,4.64,0,0,0-1.55-.19V76.58h9.23v1.71a3.55,3.55,0,0,0-1.38.28,6.1,6.1,0,0,0-1.33.77,12,12,0,0,0-1.37,1.22q-.7.72-1.52,1.64L105.07,89l8.81,12.27a12,12,0,0,0,2.31,2.5,3.72,3.72,0,0,0,2.27.85h.08v1.75h-.45a29.59,29.59,0,0,1-3.45-.16,7.48,7.48,0,0,1-2.26-.59,5.2,5.2,0,0,1-1.6-1.15,15.71,15.71,0,0,1-1.46-1.84l-7.2-10.32-3.55,2.87v6.44a3.76,3.76,0,0,0,.28,1.57,2.19,2.19,0,0,0,.73.91,2.63,2.63,0,0,0,1.09.42,8.33,8.33,0,0,0,1.33.1h.55v1.75H90.41v-1.75h.53a9,9,0,0,0,1.31-.09,2.88,2.88,0,0,0,1.09-.38,2,2,0,0,0,.74-.85,3.37,3.37,0,0,0,.27-1.48V81.17a3.37,3.37,0,0,0-.27-1.48,2.12,2.12,0,0,0-.74-.87,2.69,2.69,0,0,0-1.09-.4,9,9,0,0,0-1.31-.09h-.53V76.58h12.15v1.75H102a8.32,8.32,0,0,0-1.33.1,2.63,2.63,0,0,0-1.09.42,2.18,2.18,0,0,0-.73.91,3.76,3.76,0,0,0-.28,1.57V93.11Z" transform="translate(-4.14 -3.41)"/><path class="cls-1" d="M141.81,106.38,126.15,82.33v19.31a3.76,3.76,0,0,0,.28,1.57,2.2,2.2,0,0,0,.73.91,2.63,2.63,0,0,0,1.09.42,8.32,8.32,0,0,0,1.33.1h.55v1.75H119.65v-1.75h.53a8.27,8.27,0,0,0,1.34-.1,2.71,2.71,0,0,0,1.09-.42,2.1,2.1,0,0,0,.73-.91,3.9,3.9,0,0,0,.26-1.57V81.17a3.37,3.37,0,0,0-.27-1.48,2.12,2.12,0,0,0-.74-.87,2.69,2.69,0,0,0-1.09-.4,9,9,0,0,0-1.31-.09h-.53V76.58h7.64l14.94,23.08V81.17a3.38,3.38,0,0,0-.27-1.48,2.12,2.12,0,0,0-.74-.87,2.69,2.69,0,0,0-1.09-.4,9,9,0,0,0-1.31-.09h-.55V76.58h10.48v1.75h-.53a8.26,8.26,0,0,0-1.34.1,2.7,2.7,0,0,0-1.09.42,2.08,2.08,0,0,0-.73.91,3.89,3.89,0,0,0-.27,1.57v25.06Z" transform="translate(-4.14 -3.41)"/><path class="cls-1" d="M178.52,91.44a21.65,21.65,0,0,1-.86,6.28,13.73,13.73,0,0,1-2.53,4.85,11.28,11.28,0,0,1-4.12,3.12,13.52,13.52,0,0,1-5.61,1.1,14.09,14.09,0,0,1-5.79-1.1,10.87,10.87,0,0,1-4.1-3.12,13.58,13.58,0,0,1-2.45-4.86,24.74,24.74,0,0,1,0-12.6,13.39,13.39,0,0,1,2.45-4.82,10.83,10.83,0,0,1,4.12-3.09,14.37,14.37,0,0,1,5.81-1.09A13.5,13.5,0,0,1,171,77.2a11.28,11.28,0,0,1,4.1,3.1,13.64,13.64,0,0,1,2.53,4.83A21.7,21.7,0,0,1,178.52,91.44Zm-21.63,0a30.12,30.12,0,0,0,.46,5.54,12.29,12.29,0,0,0,1.48,4.12,7,7,0,0,0,2.64,2.57,9.22,9.22,0,0,0,7.89,0,6.9,6.9,0,0,0,2.63-2.57A12.27,12.27,0,0,0,173.45,97a34.35,34.35,0,0,0,0-11.07A12.16,12.16,0,0,0,172,81.8a6.9,6.9,0,0,0-2.61-2.55,8.07,8.07,0,0,0-3.92-.88,8.25,8.25,0,0,0-4,.88,7,7,0,0,0-2.66,2.55,12,12,0,0,0-1.49,4.11A30.12,30.12,0,0,0,156.89,91.44Z" transform="translate(-4.14 -3.41)"/><path class="cls-1" d="M204.13,76.87l5.22,18.08q.59,2.08,1,4t.74,3.35q.3-1.51.7-3.17t1-3.68l3.67-12.88.14-.55q.08-.31.14-.61l.11-.57a2.42,2.42,0,0,0,.05-.45,1.77,1.77,0,0,0-.68-1.56,3.62,3.62,0,0,0-2.07-.48h-1V76.58h10.19v1.75h-.79a4.18,4.18,0,0,0-1.07.12,1.91,1.91,0,0,0-.83.47,3.34,3.34,0,0,0-.67,1,11.31,11.31,0,0,0-.61,1.67l-7.05,24.81h-3.75L201.83,83l-6.38,23.38h-3.85l-7.65-25.85a5.13,5.13,0,0,0-.46-1.08,2.16,2.16,0,0,0-.6-.67,2.21,2.21,0,0,0-.82-.35,5.13,5.13,0,0,0-1.08-.1h-.55V76.58h11.5v1.75h-1a3.07,3.07,0,0,0-1.89.48,1.8,1.8,0,0,0-.62,1.52,2.66,2.66,0,0,0,.1.71l.22.84,3.83,13.35q.53,1.9,1,3.72t.82,3.33q.31-1.63.72-3.56t1-3.94l5-17.92Z" transform="translate(-4.14 -3.41)"/><path class="cls-1" d="M225.37,106.38v-1.75h.53a8.26,8.26,0,0,0,1.34-.1,2.7,2.7,0,0,0,1.09-.42,2.1,2.1,0,0,0,.73-.91,3.89,3.89,0,0,0,.26-1.57V81.33a3.89,3.89,0,0,0-.26-1.57,2.09,2.09,0,0,0-.73-.91,2.7,2.7,0,0,0-1.09-.42,8.26,8.26,0,0,0-1.34-.1h-.53V76.58h12.15v1.75H237a9,9,0,0,0-1.32.09,2.68,2.68,0,0,0-1.09.4,2.12,2.12,0,0,0-.74.87,3.37,3.37,0,0,0-.28,1.48v23.14h8.24a3.5,3.5,0,0,0,1.6-.34,3.24,3.24,0,0,0,1.09-.88,4.12,4.12,0,0,0,.66-1.21,6.46,6.46,0,0,0,.32-1.35l.41-3.12H248l-.29,9Z" transform="translate(-4.14 -3.41)"/><path class="cls-1" d="M259.56,104.31h8.05a4.69,4.69,0,0,0,1.7-.27,3.37,3.37,0,0,0,1.17-.74,3.43,3.43,0,0,0,.73-1.09,5.32,5.32,0,0,0,.37-1.32l.29-1.79h2.18l-.29,7.3H251.39v-1.75h.53a9,9,0,0,0,1.32-.09,2.88,2.88,0,0,0,1.09-.38,2,2,0,0,0,.74-.85,3.37,3.37,0,0,0,.28-1.48V81.33a3.89,3.89,0,0,0-.26-1.57,2.09,2.09,0,0,0-.73-.91,2.7,2.7,0,0,0-1.09-.42,8.26,8.26,0,0,0-1.34-.1h-.53V76.58h21l.2,7.3h-2.16l-.2-1.79a5.52,5.52,0,0,0-.32-1.31,3.27,3.27,0,0,0-.67-1.09,3.12,3.12,0,0,0-1.1-.74,4.17,4.17,0,0,0-1.6-.28h-7V89.77h10.07v2H259.56Z" transform="translate(-4.14 -3.41)"/><path class="cls-1" d="M303.78,91.44a20.87,20.87,0,0,1-.86,6.19,12.89,12.89,0,0,1-2.55,4.71,11.13,11.13,0,0,1-4.24,3,15.55,15.55,0,0,1-6,1H277.4v-1.75h.53a8.26,8.26,0,0,0,1.33-.1,2.7,2.7,0,0,0,1.09-.42,2.1,2.1,0,0,0,.73-.91,3.89,3.89,0,0,0,.26-1.57V81.17a3.37,3.37,0,0,0-.28-1.48,2.11,2.11,0,0,0-.74-.87,2.68,2.68,0,0,0-1.09-.4,9,9,0,0,0-1.32-.09h-.53V76.58h12.78a15.69,15.69,0,0,1,5.75,1,11.3,11.3,0,0,1,4.27,2.88,12.66,12.66,0,0,1,2.66,4.67A20.1,20.1,0,0,1,303.78,91.44ZM289.2,104.26a10.45,10.45,0,0,0,4.35-.85,8,8,0,0,0,3.11-2.48,11.21,11.21,0,0,0,1.87-4,21.85,21.85,0,0,0,.62-5.48q0-6.22-2.48-9.5t-7.43-3.28h-3.67v25.61Z" transform="translate(-4.14 -3.41)"/><path class="cls-1" d="M322.9,106.79a16.69,16.69,0,0,1-6.33-1.1,11.84,11.84,0,0,1-4.49-3.12,13,13,0,0,1-2.66-4.85,21.2,21.2,0,0,1-.88-6.28,19.71,19.71,0,0,1,.93-6.2,13.16,13.16,0,0,1,2.77-4.83,12.56,12.56,0,0,1,4.58-3.14,16.6,16.6,0,0,1,6.34-1.12,20.17,20.17,0,0,1,4,.36,10.39,10.39,0,0,1,2.88,1A4.77,4.77,0,0,1,331.81,79a3.28,3.28,0,0,1,.57,1.86,2.42,2.42,0,0,1-.31,1.21,2.87,2.87,0,0,1-.83.92,3.91,3.91,0,0,1-1.22.58,5.42,5.42,0,0,1-1.52.2,6.78,6.78,0,0,0-.29-1.94,4.68,4.68,0,0,0-.94-1.72,4.81,4.81,0,0,0-1.71-1.24,6.27,6.27,0,0,0-2.59-.48,10.66,10.66,0,0,0-4.52.87,7.61,7.61,0,0,0-3,2.53,11,11,0,0,0-1.71,4.1,26.37,26.37,0,0,0-.53,5.58,25.18,25.18,0,0,0,.55,5.55,10.58,10.58,0,0,0,1.79,4.08,7.86,7.86,0,0,0,3.22,2.51,12.15,12.15,0,0,0,4.83.86,21.69,21.69,0,0,0,2.33-.12,11.06,11.06,0,0,0,2-.39V97.19a3.38,3.38,0,0,0-.27-1.48,2.05,2.05,0,0,0-.74-.86,2.92,2.92,0,0,0-1.09-.4,8.16,8.16,0,0,0-1.32-.1h-.16V92.6h10.85v1.75H335a5.94,5.94,0,0,0-1.12.1,2,2,0,0,0-.92.42,2.09,2.09,0,0,0-.61.92,4.62,4.62,0,0,0-.22,1.58v7.5a20,20,0,0,1-4.32,1.45A23.85,23.85,0,0,1,322.9,106.79Z" transform="translate(-4.14 -3.41)"/><path class="cls-1" d="M345.73,104.31h8.05a4.69,4.69,0,0,0,1.7-.27,3.37,3.37,0,0,0,1.17-.74,3.43,3.43,0,0,0,.73-1.09,5.32,5.32,0,0,0,.37-1.32l.29-1.79h2.18l-.29,7.3H337.56v-1.75h.53a9,9,0,0,0,1.32-.09,2.88,2.88,0,0,0,1.09-.38,2,2,0,0,0,.74-.85,3.37,3.37,0,0,0,.28-1.48V81.33a3.89,3.89,0,0,0-.26-1.57,2.09,2.09,0,0,0-.73-.91,2.7,2.7,0,0,0-1.09-.42,8.26,8.26,0,0,0-1.33-.1h-.53V76.58h21l.2,7.3h-2.16l-.2-1.79a5.53,5.53,0,0,0-.32-1.31,3.27,3.27,0,0,0-.67-1.09,3.12,3.12,0,0,0-1.1-.74,4.17,4.17,0,0,0-1.6-.28h-7V89.77h10.07v2H345.73Z" transform="translate(-4.14 -3.41)"/><path class="cls-2" d="M50.61,40.53a30.17,30.17,0,0,0,8.51-.74,17.4,17.4,0,0,1,2.41,10.63,18.92,18.92,0,0,1-1.21,5.09,22.72,22.72,0,0,1-7.66-8.08A18.85,18.85,0,0,1,50.61,40.53Z" transform="translate(-4.14 -3.41)"/><path class="cls-2" d="M76,60.11c-2.82,6-12.1,6.9-12.1,6.9A14.37,14.37,0,0,0,68,58.93a34,34,0,0,1-6.6-2.77c3.75-9.77-1.07-16.7-1.07-16.7C69.64,37,73.5,31.11,73.5,31.11a15.39,15.39,0,0,0,2.88-13.94,34.82,34.82,0,0,1,21.14,5c8.93,5.67,9.83,13.58,9.83,13.58C108.69,42.42,104.8,48,104.8,48,100.69,54.85,92,57.94,92,57.94A36.74,36.74,0,0,1,76,60.11Z" transform="translate(-4.14 -3.41)"/><path class="cls-3" d="M59.7,38.34a23.66,23.66,0,0,0-7.37-7.2C57,22,67.37,19,67.37,19a38.84,38.84,0,0,1,7.69-1.7C77.83,25.52,71.18,32,71.18,32A25.11,25.11,0,0,1,59.7,38.34Z" transform="translate(-4.14 -3.41)"/><path class="cls-3" d="M50.91,30.23c-7.56-4.49-16.65-4.6-16.65-4.6a43.78,43.78,0,0,0-5.39.19A15,15,0,0,1,32,11.69C37,5.5,46,3.95,46,3.95A31.65,31.65,0,0,1,62.8,5.34c9.53,3.89,11.69,10.35,11.69,10.35a34.48,34.48,0,0,0-18,7.53A22.93,22.93,0,0,0,50.91,30.23Z" transform="translate(-4.14 -3.41)"/><path class="cls-4" d="M39.19,45c1.81-1.61,3.53-6.76,3.53-6.76C31.5,34.8,29.28,27,29.28,27a35.24,35.24,0,0,1,21.08,4.36,18.35,18.35,0,0,0-1.45,8.76C46.31,44.23,39.19,45,39.19,45Z" transform="translate(-4.14 -3.41)"/><path class="cls-4" d="M49.13,42c-5.12,5.2-14.08,4.41-14.08,4.41C40.62,43.49,41.22,39,41.22,39,30.35,35.32,28,27.19,28,27.19,14.09,29.05,8.23,37.46,8.23,37.46A17.75,17.75,0,0,0,4.14,48.41c-.22,7.67,5.48,13.06,5.48,13.06C16.08,68.32,26,69.83,26,69.83a35.32,35.32,0,0,0,9.7.49c3.34,6.35,12.87,7,12.87,7A14,14,0,0,1,44.15,69a27.45,27.45,0,0,0,11.47-6.43,22,22,0,0,0,4-5.53C49.9,51,49.13,42,49.13,42Z" transform="translate(-4.14 -3.41)"/><path class="cls-4" d="M60.51,59c-3.45,6.58-7.71,8.79-7.71,8.79a198.54,198.54,0,0,1-5.34,39.9c7.39,2.59,20.17-.48,20.17-.48C59.37,89.89,60.51,59,60.51,59Z" transform="translate(-4.14 -3.41)"/><path class="cls-4" d="M50.53,39.29a16.61,16.61,0,0,1,1.29-7,23.77,23.77,0,0,1,6.57,6.41A27.35,27.35,0,0,1,50.53,39.29Z" transform="translate(-4.14 -3.41)"/></svg>