<svg id="logo_Image" data-name="logo Image" xmlns="http://www.w3.org/2000/svg" viewBox="0 0 151.18 107.44"><defs><style>.cls-1{fill:#231f20;}.cls-2{fill:#f6a121;}.cls-3{fill:#f26132;}.cls-4{fill:#be1e2d;}</style></defs><title>WPRlogo_color</title><path class="cls-1" d="M12.86,90.81l-2.75-10.4L7.38,90.81H4.74l-4-14.09H3.47L6.22,87.57,9.14,76.71h2L14,87.57l2.73-10.86h2.77l-4,14.09Z" transform="translate(-0.71 -0.69)"/><path class="cls-1" d="M25.74,90.81V76.71h2.47V90.81Z" transform="translate(-0.71 -0.69)"/><path class="cls-1" d="M34.89,88.82l1.37-1.9a6.08,6.08,0,0,0,4.46,1.94c2,0,2.83-1,2.83-1.92,0-3-8.22-1.12-8.22-6.32,0-2.32,2-4.12,5.13-4.12a7.34,7.34,0,0,1,5.28,2l-1.42,1.84a5.72,5.72,0,0,0-4.08-1.61c-1.46,0-2.39.7-2.39,1.75,0,2.62,8.2,1,8.2,6.25,0,2.35-1.65,4.35-5.45,4.35A7.55,7.55,0,0,1,34.89,88.82Z" transform="translate(-0.71 -0.69)"/><path class="cls-1" d="M52.3,83.77a7.11,7.11,0,0,1,7.39-7.29,6.37,6.37,0,0,1,5.66,3.17l-2.11,1.08a4.18,4.18,0,0,0-3.55-2,5.1,5.1,0,0,0,0,10.18,4.13,4.13,0,0,0,3.55-2.05l2.11,1.08a6.39,6.39,0,0,1-5.66,3.17A7.11,7.11,0,0,1,52.3,83.77Z" transform="translate(-0.71 -0.69)"/><path class="cls-1" d="M71.3,83.77a7.21,7.21,0,1,1,7.21,7.29A7,7,0,0,1,71.3,83.77Zm11.88,0c0-2.92-1.84-5.09-4.67-5.09s-4.67,2.17-4.67,5.09,1.82,5.09,4.67,5.09S83.17,86.67,83.17,83.77Z" transform="translate(-0.71 -0.69)"/><path class="cls-1" d="M102.51,90.81,95.15,80.75V90.81H92.68V76.71h2.54l7.21,9.79V76.71h2.47V90.81Z" transform="translate(-0.71 -0.69)"/><path class="cls-1" d="M111.57,88.82l1.37-1.9a6.08,6.08,0,0,0,4.46,1.94c2,0,2.83-1,2.83-1.92,0-3-8.22-1.12-8.22-6.32,0-2.32,2-4.12,5.13-4.12a7.34,7.34,0,0,1,5.28,2L121,80.31a5.73,5.73,0,0,0-4.08-1.61c-1.46,0-2.39.7-2.39,1.75,0,2.62,8.2,1,8.2,6.25,0,2.35-1.65,4.35-5.45,4.35A7.54,7.54,0,0,1,111.57,88.82Z" transform="translate(-0.71 -0.69)"/><path class="cls-1" d="M129.61,90.81V76.71h2.47V90.81Z" transform="translate(-0.71 -0.69)"/><path class="cls-1" d="M149.5,90.81l-7.35-10.06V90.81h-2.47V76.71h2.54l7.21,9.79V76.71h2.47V90.81Z" transform="translate(-0.71 -0.69)"/><path class="cls-1" d="M12.88,108V98.42h4.19a3,3,0,1,1,0,6H14.55V108Zm5.59-6.55a1.5,1.5,0,0,0-1.63-1.52H14.55v3h2.29A1.5,1.5,0,0,0,18.47,101.41Z" transform="translate(-0.71 -0.69)"/><path class="cls-1" d="M24.67,104.2V98.42h1.69v5.72a2.26,2.26,0,0,0,2.45,2.5,2.26,2.26,0,0,0,2.43-2.5V98.42h1.69v5.76c0,2.37-1.36,3.95-4.12,3.95S24.67,106.54,24.67,104.2Z" transform="translate(-0.71 -0.69)"/><path class="cls-1" d="M38,108V98.42h4.69a2.44,2.44,0,0,1,2.72,2.43A2.14,2.14,0,0,1,43.8,103a2.35,2.35,0,0,1,1.84,2.34A2.5,2.5,0,0,1,42.87,108Zm5.69-6.82a1.21,1.21,0,0,0-1.35-1.24H39.72v2.47h2.67A1.2,1.2,0,0,0,43.74,101.14Zm.18,4a1.31,1.31,0,0,0-1.46-1.31H39.72v2.64h2.75A1.29,1.29,0,0,0,43.92,105.16Z" transform="translate(-0.71 -0.69)"/><path class="cls-1" d="M50.41,108V98.42h1.67v8.06h4.2V108Z" transform="translate(-0.71 -0.69)"/><path class="cls-1" d="M60.9,108V98.42h1.67V108Z" transform="translate(-0.71 -0.69)"/><path class="cls-1" d="M67.28,103.2a4.81,4.81,0,0,1,5-4.93,4.32,4.32,0,0,1,3.83,2.15l-1.43.73a2.83,2.83,0,0,0-2.4-1.39,3.45,3.45,0,0,0,0,6.89,2.8,2.8,0,0,0,2.4-1.38l1.43.73a4.32,4.32,0,0,1-3.83,2.15A4.81,4.81,0,0,1,67.28,103.2Z" transform="translate(-0.71 -0.69)"/><path class="cls-1" d="M92.78,108l-2.12-3.56H89V108H87.33V98.42h4.19a2.9,2.9,0,0,1,3.12,3,2.67,2.67,0,0,1-2.26,2.8L94.71,108Zm.14-6.55a1.5,1.5,0,0,0-1.63-1.52H89v3h2.29A1.5,1.5,0,0,0,92.92,101.41Z" transform="translate(-0.71 -0.69)"/><path class="cls-1" d="M106.09,108l-.7-1.83H101l-.7,1.83h-1.9l3.75-9.54h2.09L108,108Zm-2.89-7.85-1.72,4.55h3.43Z" transform="translate(-0.71 -0.69)"/><path class="cls-1" d="M112.13,108V98.42h3.55a4.77,4.77,0,1,1,0,9.54Zm6.82-4.76a3.09,3.09,0,0,0-3.27-3.3H113.8v6.59h1.87A3.13,3.13,0,0,0,118.95,103.2Z" transform="translate(-0.71 -0.69)"/><path class="cls-1" d="M125.38,108V98.42h1.67V108Z" transform="translate(-0.71 -0.69)"/><path class="cls-1" d="M131.75,103.2a4.87,4.87,0,1,1,4.88,4.93A4.73,4.73,0,0,1,131.75,103.2Zm8,0a3.17,3.17,0,1,0-3.16,3.45A3.17,3.17,0,0,0,139.79,103.2Z" transform="translate(-0.71 -0.69)"/><path class="cls-2" d="M76.29,6.89A14.89,14.89,0,1,1,61.4,21.77,14.91,14.91,0,0,1,76.29,6.89m0-.93A15.82,15.82,0,1,0,92.11,21.77,15.81,15.81,0,0,0,76.29,6Z" transform="translate(-0.71 -0.69)"/><path class="cls-2" d="M76.29,9.52A12.25,12.25,0,1,1,64,21.77,12.27,12.27,0,0,1,76.29,9.52m0-.93A13.18,13.18,0,1,0,89.48,21.77,13.18,13.18,0,0,0,76.29,8.6Z" transform="translate(-0.71 -0.69)"/><path class="cls-2" d="M76.29,12.16a9.62,9.62,0,1,1-9.62,9.62,9.63,9.63,0,0,1,9.62-9.62m0-.93A10.54,10.54,0,1,0,86.84,21.77,10.55,10.55,0,0,0,76.29,11.23Z" transform="translate(-0.71 -0.69)"/><path class="cls-2" d="M76.29,14.79a7,7,0,1,1-7,7,7,7,0,0,1,7-7m0-.93a7.91,7.91,0,1,0,7.91,7.91,7.91,7.91,0,0,0-7.91-7.91Z" transform="translate(-0.71 -0.69)"/><path class="cls-2" d="M76.29,18.35a3.42,3.42,0,1,1-3.42,3.42,3.42,3.42,0,0,1,3.42-3.42m0-1.85a5.27,5.27,0,1,0,5.27,5.27,5.27,5.27,0,0,0-5.27-5.27Z" transform="translate(-0.71 -0.69)"/><path class="cls-2" d="M76.29,4.25A17.53,17.53,0,1,1,58.77,21.77,17.55,17.55,0,0,1,76.29,4.25m0-.93A18.45,18.45,0,1,0,94.75,21.77,18.45,18.45,0,0,0,76.29,3.32Z" transform="translate(-0.71 -0.69)"/><path class="cls-2" d="M76.29,1.61A20.16,20.16,0,1,1,56.13,21.77,20.19,20.19,0,0,1,76.29,1.61m0-.93A21.09,21.09,0,1,0,97.38,21.77,21.09,21.09,0,0,0,76.29.69Z" transform="translate(-0.71 -0.69)"/><path class="cls-3" d="M89,28.9A14.89,14.89,0,1,1,74.14,43.78,14.91,14.91,0,0,1,89,28.9M89,28a15.82,15.82,0,1,0,15.82,15.81A15.82,15.82,0,0,0,89,28Z" transform="translate(-0.71 -0.69)"/><path class="cls-3" d="M89,31.53A12.25,12.25,0,1,1,76.77,43.78,12.27,12.27,0,0,1,89,31.53m0-.93a13.18,13.18,0,1,0,13.18,13.18A13.18,13.18,0,0,0,89,30.61Z" transform="translate(-0.71 -0.69)"/><path class="cls-3" d="M89,34.17a9.62,9.62,0,1,1-9.62,9.62A9.63,9.63,0,0,1,89,34.17m0-.93A10.54,10.54,0,1,0,99.57,43.78,10.54,10.54,0,0,0,89,33.24Z" transform="translate(-0.71 -0.69)"/><path class="cls-3" d="M89,36.8a7,7,0,1,1-7,7,7,7,0,0,1,7-7m0-.93a7.91,7.91,0,1,0,7.91,7.91A7.91,7.91,0,0,0,89,35.88Z" transform="translate(-0.71 -0.69)"/><path class="cls-3" d="M89,40.37a3.42,3.42,0,1,1-3.42,3.42A3.42,3.42,0,0,1,89,40.37m0-1.85a5.27,5.27,0,1,0,5.27,5.27A5.27,5.27,0,0,0,89,38.52Z" transform="translate(-0.71 -0.69)"/><path class="cls-3" d="M89,26.26A17.53,17.53,0,1,1,71.5,43.79,17.55,17.55,0,0,1,89,26.26m0-.93a18.45,18.45,0,1,0,18.45,18.45A18.46,18.46,0,0,0,89,25.33Z" transform="translate(-0.71 -0.69)"/><path class="cls-3" d="M89,23.62A20.16,20.16,0,1,1,68.86,43.79,20.19,20.19,0,0,1,89,23.62m0-.93a21.09,21.09,0,1,0,21.09,21.09A21.09,21.09,0,0,0,89,22.7Z" transform="translate(-0.71 -0.69)"/><path class="cls-4" d="M63.58,28.9A14.89,14.89,0,1,1,48.69,43.79,14.91,14.91,0,0,1,63.58,28.9m0-.93A15.82,15.82,0,1,0,79.4,43.79,15.82,15.82,0,0,0,63.58,28Z" transform="translate(-0.71 -0.69)"/><path class="cls-4" d="M63.58,31.53A12.25,12.25,0,1,1,51.33,43.79,12.27,12.27,0,0,1,63.58,31.53m0-.93A13.18,13.18,0,1,0,76.76,43.79,13.18,13.18,0,0,0,63.58,30.61Z" transform="translate(-0.71 -0.69)"/><path class="cls-4" d="M63.58,34.17A9.62,9.62,0,1,1,54,43.79a9.63,9.63,0,0,1,9.62-9.62m0-.93A10.54,10.54,0,1,0,74.13,43.79,10.54,10.54,0,0,0,63.58,33.24Z" transform="translate(-0.71 -0.69)"/><path class="cls-4" d="M63.58,36.8a7,7,0,1,1-7,7,7,7,0,0,1,7-7m0-.93a7.91,7.91,0,1,0,7.91,7.91,7.91,7.91,0,0,0-7.91-7.91Z" transform="translate(-0.71 -0.69)"/><path class="cls-4" d="M63.58,40.37a3.42,3.42,0,1,1-3.42,3.42,3.42,3.42,0,0,1,3.42-3.42m0-1.85a5.27,5.27,0,1,0,5.27,5.27,5.27,5.27,0,0,0-5.27-5.27Z" transform="translate(-0.71 -0.69)"/><path class="cls-4" d="M63.58,26.26A17.53,17.53,0,1,1,46.05,43.78,17.55,17.55,0,0,1,63.58,26.26m0-.93A18.45,18.45,0,1,0,82,43.78,18.45,18.45,0,0,0,63.58,25.33Z" transform="translate(-0.71 -0.69)"/><path class="cls-4" d="M63.58,23.62A20.16,20.16,0,1,1,43.42,43.78,20.18,20.18,0,0,1,63.58,23.62m0-.93A21.09,21.09,0,1,0,84.67,43.78,21.09,21.09,0,0,0,63.58,22.7Z" transform="translate(-0.71 -0.69)"/></svg>