<svg id="logo_Image" data-name="logo Image" xmlns="http://www.w3.org/2000/svg" viewBox="0 0 228.78 62.4"><defs><style>.cls-1{fill:#f6a121;}.cls-2{fill:#f26132;}.cls-3{fill:#be1e2d;}.cls-4{fill:#231f20;}</style></defs><title>WPRLogo_horizontal_color</title><path class="cls-1" d="M34.13,7A14.48,14.48,0,1,1,19.65,21.48,14.49,14.49,0,0,1,34.13,7m0-.9A15.38,15.38,0,1,0,49.5,21.48,15.37,15.37,0,0,0,34.13,6.1Z" transform="translate(-1.26 -0.98)"/><path class="cls-1" d="M34.13,9.57A11.91,11.91,0,1,1,22.21,21.48,11.93,11.93,0,0,1,34.13,9.57m0-.9A12.81,12.81,0,1,0,46.94,21.48,12.81,12.81,0,0,0,34.13,8.66Z" transform="translate(-1.26 -0.98)"/><path class="cls-1" d="M34.13,12.13a9.35,9.35,0,1,1-9.35,9.35,9.36,9.36,0,0,1,9.35-9.35m0-.9A10.25,10.25,0,1,0,44.38,21.48,10.25,10.25,0,0,0,34.13,11.23Z" transform="translate(-1.26 -0.98)"/><path class="cls-1" d="M34.13,14.69a6.79,6.79,0,1,1-6.79,6.79,6.8,6.8,0,0,1,6.79-6.79m0-.9a7.69,7.69,0,1,0,7.69,7.69,7.69,7.69,0,0,0-7.69-7.69Z" transform="translate(-1.26 -0.98)"/><path class="cls-1" d="M34.13,18.15a3.33,3.33,0,1,1-3.32,3.32,3.33,3.33,0,0,1,3.32-3.32m0-1.8a5.13,5.13,0,1,0,5.13,5.12,5.12,5.12,0,0,0-5.12-5.12Z" transform="translate(-1.26 -0.98)"/><path class="cls-1" d="M34.13,4.44a17,17,0,1,1-17,17,17.06,17.06,0,0,1,17-17m0-.9A17.94,17.94,0,1,0,52.06,21.48,17.94,17.94,0,0,0,34.13,3.54Z" transform="translate(-1.26 -0.98)"/><path class="cls-1" d="M34.13,1.88a19.6,19.6,0,1,1-19.6,19.6,19.62,19.62,0,0,1,19.6-19.6m0-.9a20.5,20.5,0,1,0,20.5,20.5A20.5,20.5,0,0,0,34.13,1Z" transform="translate(-1.26 -0.98)"/><path class="cls-2" d="M46.5,28.4A14.48,14.48,0,1,1,32,42.87,14.49,14.49,0,0,1,46.5,28.4m0-.9A15.38,15.38,0,1,0,61.88,42.87,15.38,15.38,0,0,0,46.5,27.5Z" transform="translate(-1.26 -0.98)"/><path class="cls-2" d="M46.5,31A11.91,11.91,0,1,1,34.59,42.87,11.92,11.92,0,0,1,46.5,31m0-.9A12.81,12.81,0,1,0,59.32,42.87,12.81,12.81,0,0,0,46.5,30.06Z" transform="translate(-1.26 -0.98)"/><path class="cls-2" d="M46.5,33.53a9.35,9.35,0,1,1-9.35,9.35,9.36,9.36,0,0,1,9.35-9.35m0-.9A10.25,10.25,0,1,0,56.75,42.87,10.25,10.25,0,0,0,46.5,32.63Z" transform="translate(-1.26 -0.98)"/><path class="cls-2" d="M46.5,36.09a6.79,6.79,0,1,1-6.79,6.79,6.8,6.8,0,0,1,6.79-6.79m0-.9a7.69,7.69,0,1,0,7.69,7.69,7.69,7.69,0,0,0-7.69-7.69Z" transform="translate(-1.26 -0.98)"/><path class="cls-2" d="M46.5,39.55a3.33,3.33,0,1,1-3.33,3.32,3.33,3.33,0,0,1,3.33-3.32m0-1.8a5.13,5.13,0,1,0,5.13,5.12,5.13,5.13,0,0,0-5.12-5.12Z" transform="translate(-1.26 -0.98)"/><path class="cls-2" d="M46.5,25.84a17,17,0,1,1-17,17,17.06,17.06,0,0,1,17-17m0-.9A17.94,17.94,0,1,0,64.44,42.88,17.94,17.94,0,0,0,46.5,24.94Z" transform="translate(-1.26 -0.98)"/><path class="cls-2" d="M46.5,23.27a19.6,19.6,0,1,1-19.6,19.6,19.62,19.62,0,0,1,19.6-19.6m0-.9A20.5,20.5,0,1,0,67,42.88a20.5,20.5,0,0,0-20.5-20.5Z" transform="translate(-1.26 -0.98)"/><path class="cls-3" d="M21.77,28.4A14.48,14.48,0,1,1,7.29,42.88,14.49,14.49,0,0,1,21.77,28.4m0-.9A15.38,15.38,0,1,0,37.14,42.88,15.38,15.38,0,0,0,21.77,27.5Z" transform="translate(-1.26 -0.98)"/><path class="cls-3" d="M21.77,31A11.91,11.91,0,1,1,9.85,42.88,11.93,11.93,0,0,1,21.77,31m0-.9A12.81,12.81,0,1,0,34.58,42.88,12.81,12.81,0,0,0,21.77,30.06Z" transform="translate(-1.26 -0.98)"/><path class="cls-3" d="M21.77,33.53a9.35,9.35,0,1,1-9.35,9.35,9.36,9.36,0,0,1,9.35-9.35m0-.9A10.25,10.25,0,1,0,32,42.88,10.25,10.25,0,0,0,21.77,32.63Z" transform="translate(-1.26 -0.98)"/><path class="cls-3" d="M21.77,36.09A6.79,6.79,0,1,1,15,42.88a6.8,6.8,0,0,1,6.79-6.79m0-.9a7.69,7.69,0,1,0,7.69,7.69,7.69,7.69,0,0,0-7.69-7.69Z" transform="translate(-1.26 -0.98)"/><path class="cls-3" d="M21.77,39.55a3.33,3.33,0,1,1-3.33,3.32,3.33,3.33,0,0,1,3.33-3.32m0-1.8a5.13,5.13,0,1,0,5.13,5.13,5.13,5.13,0,0,0-5.12-5.12Z" transform="translate(-1.26 -0.98)"/><path class="cls-3" d="M21.77,25.84a17,17,0,1,1-17,17,17.06,17.06,0,0,1,17-17m0-.9A17.94,17.94,0,1,0,39.71,42.87,17.94,17.94,0,0,0,21.77,24.94Z" transform="translate(-1.26 -0.98)"/><path class="cls-3" d="M21.77,23.27a19.6,19.6,0,1,1-19.6,19.6,19.62,19.62,0,0,1,19.6-19.6m0-.9a20.5,20.5,0,1,0,20.5,20.5,20.5,20.5,0,0,0-20.5-20.5Z" transform="translate(-1.26 -0.98)"/><path class="cls-4" d="M80.05,30.2,77.2,19.42,74.38,30.2H71.64L67.45,15.58h2.87l2.85,11.27,3-11.27h2l3,11.27,2.83-11.27H87L82.79,30.2Z" transform="translate(-1.26 -0.98)"/><path class="cls-4" d="M94.15,30.2V15.58h2.56V30.2Z" transform="translate(-1.26 -0.98)"/><path class="cls-4" d="M104.36,28.14l1.43-2a6.31,6.31,0,0,0,4.62,2c2.1,0,2.94-1,2.94-2,0-3.07-8.52-1.16-8.52-6.55,0-2.41,2.13-4.27,5.33-4.27a7.6,7.6,0,0,1,5.48,2l-1.47,1.91a6,6,0,0,0-4.23-1.67c-1.51,0-2.48.72-2.48,1.82,0,2.72,8.5,1,8.5,6.49,0,2.43-1.71,4.52-5.65,4.52A7.83,7.83,0,0,1,104.36,28.14Z" transform="translate(-1.26 -0.98)"/><path class="cls-4" d="M123.14,22.9a7.37,7.37,0,0,1,7.67-7.56,6.61,6.61,0,0,1,5.87,3.29l-2.19,1.12a4.34,4.34,0,0,0-3.68-2.13,5,5,0,0,0-5,5.28,5,5,0,0,0,5,5.28,4.3,4.3,0,0,0,3.68-2.13l2.19,1.12a6.64,6.64,0,0,1-5.87,3.29A7.38,7.38,0,0,1,123.14,22.9Z" transform="translate(-1.26 -0.98)"/><path class="cls-4" d="M143.57,22.9a7.47,7.47,0,1,1,14.95,0,7.47,7.47,0,1,1-14.95,0Zm12.32,0c0-3-1.91-5.28-4.84-5.28s-4.84,2.26-4.84,5.28,1.88,5.28,4.84,5.28S155.88,25.91,155.88,22.9Z" transform="translate(-1.26 -0.98)"/><path class="cls-4" d="M176.66,30.2,169,19.77V30.2h-2.56V15.58h2.63l7.47,10.15V15.58h2.56V30.2Z" transform="translate(-1.26 -0.98)"/><path class="cls-4" d="M186.78,28.14l1.43-2a6.31,6.31,0,0,0,4.63,2c2.1,0,2.94-1,2.94-2,0-3.07-8.52-1.16-8.52-6.55,0-2.41,2.13-4.27,5.32-4.27a7.61,7.61,0,0,1,5.48,2l-1.47,1.91a6,6,0,0,0-4.23-1.67c-1.51,0-2.48.72-2.48,1.82,0,2.72,8.5,1,8.5,6.49,0,2.43-1.71,4.52-5.65,4.52A7.83,7.83,0,0,1,186.78,28.14Z" transform="translate(-1.26 -0.98)"/><path class="cls-4" d="M206.23,30.2V15.58h2.56V30.2Z" transform="translate(-1.26 -0.98)"/><path class="cls-4" d="M227.57,30.2l-7.62-10.43V30.2h-2.57V15.58H220l7.47,10.15V15.58H230V30.2Z" transform="translate(-1.26 -0.98)"/><path class="cls-4" d="M79.28,48V38.1h4.34a3.1,3.1,0,1,1,0,6.2H81V48Zm5.8-6.79a1.56,1.56,0,0,0-1.69-1.57H81v3.14h2.37A1.56,1.56,0,0,0,85.08,41.2Z" transform="translate(-1.26 -0.98)"/><path class="cls-4" d="M92,44.09v-6h1.75V44a2.53,2.53,0,1,0,5.06,0V38.1h1.75v6c0,2.46-1.41,4.09-4.27,4.09S92,46.52,92,44.09Z" transform="translate(-1.26 -0.98)"/><path class="cls-4" d="M106.36,48V38.1h4.86A2.53,2.53,0,0,1,114,40.62a2.22,2.22,0,0,1-1.72,2.27,2.43,2.43,0,0,1,1.92,2.43A2.6,2.6,0,0,1,111.36,48Zm5.9-7.07a1.26,1.26,0,0,0-1.39-1.29H108.1v2.57h2.77A1.25,1.25,0,0,0,112.27,40.92Zm.19,4.17a1.36,1.36,0,0,0-1.51-1.36H108.1v2.75h2.85A1.33,1.33,0,0,0,112.46,45.08Z" transform="translate(-1.26 -0.98)"/><path class="cls-4" d="M119.68,48V38.1h1.74v8.37h4.36V48Z" transform="translate(-1.26 -0.98)"/><path class="cls-4" d="M131,48V38.1h1.74V48Z" transform="translate(-1.26 -0.98)"/><path class="cls-4" d="M138.15,43.05a5,5,0,0,1,5.19-5.12,4.47,4.47,0,0,1,4,2.22l-1.48.76a2.93,2.93,0,0,0-2.49-1.44,3.58,3.58,0,0,0,0,7.15,2.9,2.9,0,0,0,2.49-1.44l1.48.76a4.49,4.49,0,0,1-4,2.22A5,5,0,0,1,138.15,43.05Z" transform="translate(-1.26 -0.98)"/><path class="cls-4" d="M165.58,48l-2.2-3.69h-1.72V48h-1.74V38.1h4.35a3,3,0,0,1,3.23,3.1,2.77,2.77,0,0,1-2.34,2.91L167.58,48Zm.15-6.79A1.56,1.56,0,0,0,164,39.63h-2.37v3.14H164A1.56,1.56,0,0,0,165.73,41.2Z" transform="translate(-1.26 -0.98)"/><path class="cls-4" d="M179.87,48l-.73-1.9h-4.54l-.73,1.9h-2l3.88-9.89H178L181.84,48Zm-3-8.14-1.78,4.71h3.56Z" transform="translate(-1.26 -0.98)"/><path class="cls-4" d="M186.63,48V38.1h3.68a5,5,0,1,1,0,9.89Zm7.08-4.94a3.21,3.21,0,0,0-3.4-3.43h-1.94v6.84h1.94A3.25,3.25,0,0,0,193.7,43.05Z" transform="translate(-1.26 -0.98)"/><path class="cls-4" d="M200.86,48V38.1h1.74V48Z" transform="translate(-1.26 -0.98)"/><path class="cls-4" d="M208,43.05A5.06,5.06,0,1,1,213,48.17,4.91,4.91,0,0,1,208,43.05Zm8.33,0a3.29,3.29,0,1,0-6.56,0,3.29,3.29,0,1,0,6.56,0Z" transform="translate(-1.26 -0.98)"/></svg>